<mxfile host="Electron" agent="Mozilla/5.0 (Windows NT 10.0; Win64; x64) AppleWebKit/537.36 (KHTML, like Gecko) draw.io/24.7.17 Chrome/128.0.6613.36 Electron/32.0.1 Safari/537.36" version="24.7.17">
  <diagram name="Page-1" id="23erBIxSGmrKZE05tsN8">
    <mxGraphModel dx="1434" dy="836" grid="1" gridSize="10" guides="1" tooltips="1" connect="1" arrows="1" fold="1" page="1" pageScale="1" pageWidth="700" pageHeight="1000" math="0" shadow="0">
      <root>
        <mxCell id="0" />
        <mxCell id="1" parent="0" />
        <mxCell id="uEIHZIaeMJCAUGK6UfYd-2" value="" style="strokeWidth=1;shadow=0;dashed=0;align=left;html=1;shape=mxgraph.mockup.containers.browserWindow;rSize=0;strokeColor=#666666;strokeColor2=#008cff;strokeColor3=#c4c4c4;mainText=,;recursiveResize=0;fontFamily=poppins;verticalAlign=top;fontSize=16;" parent="1" vertex="1">
          <mxGeometry x="10" y="40" width="1440" height="960" as="geometry" />
        </mxCell>
        <mxCell id="uEIHZIaeMJCAUGK6UfYd-3" value="Covoiturage" style="strokeWidth=1;shadow=0;dashed=0;align=center;html=1;shape=mxgraph.mockup.containers.anchor;fontSize=17;fontColor=#666666;align=left;whiteSpace=wrap;" parent="uEIHZIaeMJCAUGK6UfYd-2" vertex="1">
          <mxGeometry x="60" y="10" width="120" height="26" as="geometry" />
        </mxCell>
        <mxCell id="uEIHZIaeMJCAUGK6UfYd-4" value="https://www.EcoRide.com" style="strokeWidth=1;shadow=0;dashed=0;align=center;html=1;shape=mxgraph.mockup.containers.anchor;rSize=0;fontSize=17;fontColor=#666666;align=left;" parent="uEIHZIaeMJCAUGK6UfYd-2" vertex="1">
          <mxGeometry x="130" y="58" width="250" height="26" as="geometry" />
        </mxCell>
        <mxCell id="ZrBkiMNtM1u3mRG2UJpK-3" value="&lt;font style=&quot;font-size: 25px;&quot;&gt;Covoiturage&lt;/font&gt;&lt;div style=&quot;font-size: 25px;&quot;&gt;&lt;br&gt;&lt;/div&gt;" style="text;html=1;align=center;verticalAlign=middle;whiteSpace=wrap;rounded=0;fontFamily=poppins;" parent="uEIHZIaeMJCAUGK6UfYd-2" vertex="1">
          <mxGeometry x="500" y="160" width="140" height="53.5" as="geometry" />
        </mxCell>
        <mxCell id="ZrBkiMNtM1u3mRG2UJpK-4" value="&lt;font style=&quot;font-size: 25px;&quot;&gt;Contact&lt;/font&gt;" style="text;html=1;align=center;verticalAlign=middle;whiteSpace=wrap;rounded=0;fontSize=25;fontFamily=poppins;" parent="uEIHZIaeMJCAUGK6UfYd-2" vertex="1">
          <mxGeometry x="840" y="160" width="60" height="30" as="geometry" />
        </mxCell>
        <mxCell id="ZrBkiMNtM1u3mRG2UJpK-5" value="Adresse de départ" style="verticalLabelPosition=middle;verticalAlign=middle;html=1;shape=mxgraph.basic.rect;fillColor2=none;strokeWidth=1;size=20;indent=5;fontFamily=poppins;labelPosition=center;align=left;fontSize=16;" parent="uEIHZIaeMJCAUGK6UfYd-2" vertex="1">
          <mxGeometry x="225.38" y="255" width="174.62" height="25" as="geometry" />
        </mxCell>
        <mxCell id="ZrBkiMNtM1u3mRG2UJpK-13" value="Rechercher" style="strokeWidth=1;shadow=0;dashed=0;align=center;html=1;shape=mxgraph.mockup.buttons.button;strokeColor=#666666;fontColor=#ffffff;mainText=;buttonStyle=round;fontSize=20;fontStyle=0;fillColor=#008cff;whiteSpace=wrap;fontFamily=montserrat;" parent="uEIHZIaeMJCAUGK6UfYd-2" vertex="1">
          <mxGeometry x="1020" y="255" width="140" height="35" as="geometry" />
        </mxCell>
        <mxCell id="ZrBkiMNtM1u3mRG2UJpK-20" value="EcoRide -&amp;nbsp;&lt;span style=&quot;background-color: initial; font-size: 12px;&quot;&gt;Adresse mail&lt;/span&gt;" style="text;html=1;align=center;verticalAlign=middle;whiteSpace=wrap;rounded=0;fontFamily=poppins;fontSize=12;" parent="uEIHZIaeMJCAUGK6UfYd-2" vertex="1">
          <mxGeometry x="225.38" y="930" width="170" height="20" as="geometry" />
        </mxCell>
        <mxCell id="ZrBkiMNtM1u3mRG2UJpK-22" value="Mentions légales" style="shape=rectangle;strokeColor=none;fillColor=none;linkText=;fontSize=12;fontColor=#0000ff;fontStyle=4;html=1;align=center;fontFamily=poppins;" parent="uEIHZIaeMJCAUGK6UfYd-2" vertex="1">
          <mxGeometry x="970" y="925" width="150" height="30" as="geometry" />
        </mxCell>
        <mxCell id="wtSrPujQU7ZRSCQdGrFR-3" value="Adresse d&#39;arrivée" style="verticalLabelPosition=middle;verticalAlign=middle;html=1;shape=mxgraph.basic.rect;fillColor2=none;strokeWidth=1;size=20;indent=5;fontFamily=poppins;labelPosition=center;align=left;fontSize=16;" parent="uEIHZIaeMJCAUGK6UfYd-2" vertex="1">
          <mxGeometry x="500" y="255" width="170" height="25" as="geometry" />
        </mxCell>
        <mxCell id="wtSrPujQU7ZRSCQdGrFR-4" value="Date" style="verticalLabelPosition=middle;verticalAlign=middle;html=1;shape=mxgraph.basic.rect;fillColor2=none;strokeWidth=1;size=20;indent=5;fontFamily=poppins;labelPosition=center;align=left;fontSize=16;" parent="uEIHZIaeMJCAUGK6UfYd-2" vertex="1">
          <mxGeometry x="780" y="255" width="150" height="25" as="geometry" />
        </mxCell>
        <mxCell id="l4KhJLgqM4Zn7-iOpmWp-1" value="Photo&amp;nbsp;&lt;div&gt;chauffeur&lt;/div&gt;" style="verticalLabelPosition=middle;shadow=0;dashed=0;align=center;html=1;verticalAlign=top;strokeWidth=1;shape=mxgraph.mockup.graphics.simpleIcon;strokeColor=#999999;fontFamily=poppins;labelPosition=center;" parent="uEIHZIaeMJCAUGK6UfYd-2" vertex="1">
          <mxGeometry x="225.38" y="390" width="214.62" height="120" as="geometry" />
        </mxCell>
        <mxCell id="l4KhJLgqM4Zn7-iOpmWp-3" value="&lt;font style=&quot;font-size: 16px;&quot;&gt;pseudo chauffeur + Note&lt;/font&gt;&lt;div style=&quot;font-size: 16px;&quot;&gt;&lt;font style=&quot;font-size: 16px;&quot;&gt;Date - heure départ&lt;/font&gt;&lt;/div&gt;&lt;div style=&quot;font-size: 16px;&quot;&gt;&lt;font style=&quot;font-size: 16px;&quot;&gt;Date- heure d&#39;arrivée&lt;/font&gt;&lt;/div&gt;&lt;div style=&quot;font-size: 16px;&quot;&gt;&lt;font style=&quot;font-size: 16px;&quot;&gt;nombre de place disponible&lt;/font&gt;&lt;/div&gt;&lt;div style=&quot;font-size: 16px;&quot;&gt;&lt;font style=&quot;font-size: 16px;&quot;&gt;Voyage écologique : oui ou non&lt;/font&gt;&lt;/div&gt;&lt;div style=&quot;font-size: 16px;&quot;&gt;&lt;br style=&quot;font-size: 16px;&quot;&gt;&lt;/div&gt;" style="rounded=0;whiteSpace=wrap;html=1;align=left;fontFamily=poppins;verticalAlign=top;fontSize=16;" parent="uEIHZIaeMJCAUGK6UfYd-2" vertex="1">
          <mxGeometry x="500" y="390" width="370" height="120" as="geometry" />
        </mxCell>
        <mxCell id="l4KhJLgqM4Zn7-iOpmWp-4" value="Prix" style="rounded=0;whiteSpace=wrap;html=1;verticalAlign=middle;fontSize=35;" parent="uEIHZIaeMJCAUGK6UfYd-2" vertex="1">
          <mxGeometry x="970" y="390" width="180" height="80" as="geometry" />
        </mxCell>
        <mxCell id="l4KhJLgqM4Zn7-iOpmWp-14" value="" style="shape=image;verticalLabelPosition=middle;labelBackgroundColor=default;verticalAlign=middle;aspect=fixed;imageAspect=0;image=data:image/png,iVBORw0KGgoAAAANSUhEUgAAAD8AAAAXCAYAAAC8oJeEAAAAAXNSR0IArs4c6QAAAARnQU1BAACxjwv8YQUAAAAJcEhZcwAADsMAAA7DAcdvqGQAAAKBSURBVFhH7ZdBaNNgFMf/CpViGNRBw6AKnYdOQUQR5iUH2aUePPWwoEtBojAmVrAHp9hc1so60B7WIUNcCmsR60EvCo0wdsmpF2V0l3pIEXLpYA4kIATRL/XrtGtqm8pESX/waN/r6wf/9733SA5sb29/g0s5SD9dyUC8WxmIdytdt329XMTrTYN6HRidgHghSJ0mdSiJGOQP1G0QhlScwOaNBOpXc4iNe1AvSYipHLKpMFia9bfoevNsgIG2pkApdbC1d8Cwn2a3E7y8APmpTC2KUzT+L9C97QOXkFyIIuSh/q94WITvpCGeZmignUPew2CGGGrWIUHwjwuNW29nB+q8AHmDuvtMbzNvV4AehNtTgczzNgJ1KPduIvvehPKAB89LULZI9goPqVSBuhiHwIvIW2Nk1KA0fJIniJCelFH/ap1hnU3+t6EiGxfAX8+jaoU70PvCswowF9mdy/GZ3oRXczEixBJDbKVCo3YEEJ6/S7YC2Qz3iygWkwjTadIKGayPRJFayiByzIC6nMBLJoqlZyQvl8T5j4+QfqP/SIaG/OI62KkUsg8jGKVRO5xt+yEffPTrEdLGvdAy81P9Tbx5UkBs8iyCfh8Yr4Zq2cTO2zSmr1g3H290g771qZmNMYEU/FwQrI+B3XA1cSa+D1pm3kuDThlhd4vehLtdIN1hdQi1az8LGxjem23PvovvB61Wg/HZgNmY470cReiMB+rqMlTdhGkaMPQKqmQ/OMWZeD8H/iL721b6M8bATYagv5iFOBPD85ZnhCY+cLdSEE9okGcFCGThTc+9gvaF/uyAPl5pDVRWM6hyEiLHaeg/ZfA+71YG4t3KQLxbcbF44DsdJ+BWKKdjRQAAAABJRU5ErkJggg==;fontFamily=poppins;labelPosition=center;align=center;" parent="uEIHZIaeMJCAUGK6UfYd-2" vertex="1">
          <mxGeometry x="1052.61" y="330" width="97.39" height="35.56" as="geometry" />
        </mxCell>
        <mxCell id="iVO06veVu8eaDtkg2tSH-1" value="&lt;font style=&quot;font-size: 20px;&quot; face=&quot;montserrat&quot;&gt;Détails&lt;/font&gt;" style="shape=rectangle;strokeColor=none;fillColor=none;linkText=;fontSize=20;fontColor=#0000ff;fontStyle=4;html=1;align=center;" parent="uEIHZIaeMJCAUGK6UfYd-2" vertex="1">
          <mxGeometry x="930" y="480" width="270" height="30" as="geometry" />
        </mxCell>
        <mxCell id="iVO06veVu8eaDtkg2tSH-5" value="" style="shape=image;aspect=fixed;image=data:image/jpg,/9j/4AAQSkZJRgABAQEAYABgAAD/4QAiRXhpZgAATU0AKgAAAAgAAQESAAMAAAABAAEAAAAAAAD/2wBDAAIBAQIBAQICAgICAgICAwUDAwMDAwYEBAMFBwYHBwcGBwcICQsJCAgKCAcHCg0KCgsMDAwMBwkODw0MDgsMDAz/2wBDAQICAgMDAwYDAwYMCAcIDAwMDAwMDAwMDAwMDAwMDAwMDAwMDAwMDAwMDAwMDAwMDAwMDAwMDAwMDAwMDAwMDAz/wAARCAE1AkcDASIAAhEBAxEB/8QAHwAAAQUBAQEBAQEAAAAAAAAAAAECAwQFBgcICQoL/8QAtRAAAgEDAwIEAwUFBAQAAAF9AQIDAAQRBRIhMUEGE1FhByJxFDKBkaEII0KxwRVS0fAkM2JyggkKFhcYGRolJicoKSo0NTY3ODk6Q0RFRkdISUpTVFVWV1hZWmNkZWZnaGlqc3R1dnd4eXqDhIWGh4iJipKTlJWWl5iZmqKjpKWmp6ipqrKztLW2t7i5usLDxMXGx8jJytLT1NXW19jZ2uHi4+Tl5ufo6erx8vP09fb3+Pn6/8QAHwEAAwEBAQEBAQEBAQAAAAAAAAECAwQFBgcICQoL/8QAtREAAgECBAQDBAcFBAQAAQJ3AAECAxEEBSExBhJBUQdhcRMiMoEIFEKRobHBCSMzUvAVYnLRChYkNOEl8RcYGRomJygpKjU2Nzg5OkNERUZHSElKU1RVVldYWVpjZGVmZ2hpanN0dXZ3eHl6goOEhYaHiImKkpOUlZaXmJmaoqOkpaanqKmqsrO0tba3uLm6wsPExcbHyMnK0tPU1dbX2Nna4uPk5ebn6Onq8vP09fb3+Pn6/9oADAMBAAIRAxEAPwD9/KKKKACiiigAooooAKKKKACiiigAooooAKKKKACiiigAooooAKKKKACiiigAooooAKKKKACiiigAooooAKKKKACiiigAooooAKKKKACiiigAooooAKKKKACiiigAooooAKKKKACiiigAooooAKKKKACiiigAooooAKKKKACiiigAooooAKKKKACiiigAooooAKKKKACiiigAooooAKKKKACiiigAooooAKKKKACiiigAooooAKKKKACiiigAooooAKK8g/ak/bz+Df7FmhNqHxS+JHhPwXEylooL+/Rbq6KjJWK3UmWRsdkU9a/MD9rX/g8l+FXw4ubrT/hL4B8ReOrqGTyk1LXZRomnt8ud6xbXu2HbDRJnHXvQB+z1c/8AET4r+GPhHoU2qeKvEWh+G9Nt0Mkl3ql9FaQoo6ktIwFfyl/tRf8AB0h+1d+0ZNNDp/je3+HWkyK6Cy8I6elicMwxvuZvOuCQBjcjx5znAPA+DPih8ePFnxn16TVPFmv6x4m1ORNhvNZvp9Suduc8SXDyOv4MKAP63Pjf/wAHIH7HfwRneBvi1a+MLxVZ/s/hOwuNaBA4/wBdChhGSON0g/Kvjb43/wDB6l8NfDcMyeAfg74t8QTLIY45df1m00mMgHG4pD9pkHrtKg9uDX84N3qM98f30003+87N/OoaAP2d+MH/AAef/HbxBf8Al+EfBPwt8K2WCC8lte6zcH0IZ5bdPzQ187/Eb/g6S/bG8eX7NB8UW0OzK7fJ0bw/p1oD053SQzPn6N3r86ooGnk2qrMx6Yq4NDuhu8wRw+Wu5kllWNyMZGFJBOeMYBzQB9RfEL/guB+1b8SIJIb74+fFSOOX74tddayyPTNssRx+NcDqH/BSX47ao2br4u/FS6bGP3vjfV3wP/AmpvhP/wAEzfj38crmyXwn8I/iZ4gjviAk1n4XvvJAIzkyyRpEPrvx719NfDH/AINef2wviPeRrJ8K7jw/ayIG+065run2SjPYxxzTSj8U/CgD5Pf9vv4yTf6z4l/EJ/r4u1U/+3NTW/8AwUH+NVn/AKn4ofEaHHTZ4w1Zcf8AkzX6P+B/+DM79o7XL+NtY8SfCbw/aN/rDLrV7qEy/RI7SNf/AB+vW9D/AODJfxdNFH/aXxr8E2r4G8W/hq8uMHv1u48/XA+goA/KHQ/+CqX7Rvhm7t7jT/jl8X7KS1YMgj8bapJGMAjlJJ3Tv0K+lev+EP8Ag4o/bA8F2ccNt8dvG0jINvmXqafqH6T2zN+bflX6R6B/wZDRxXrSap+0MkkP8Mdn4JEePxkvJP1FdMP+DJDwcR/yXrxD/wCEpaf/AB2gD4r+GP8Awd6ftW+B7GKLVNS8A+LZEwSdW8LeW0nsXtriHt328e9fUXwa/wCD2LUkvbODx58EdJvoWwLm58PeInhlQ9ysNzDtP0878T1rofEX/BkTodxB/wASv9oLULeX1u/B0Mq/klyh/IiuU1X/AIMidbt0/wBB+Pfhe8bH/Lz4OurcE/8AAdQegD7O+An/AAdmfsp/FpVXxFdeOvhzcGTy2bWdDa7t1J4yZrJp1C+7bcDrivuL9nv9un4M/tWWLT/Df4peBfGm0gSR6VrEFxNCSMgPEG3oeejAV+BfxF/4Mt/jdo0Rk8L/ABI+FuszKflS4/tDTTj2YrP/ACrynx7/AMGqX7ZHwyKajpOg+FfFV1p7JLCdJ8WQNchlIKmJrqKAqynB+8p+Xg0Af1SA5FFfzLfCvxd/wVS/4JxC3kXRPjjrGhWc+ZNP1bTF8Z6dsK7dh8uS5uFTODmKVAD6DNfV/wAAP+Due8+HWr2/h/8AaV+DOseE9QjSPzdU0KOa1LjdteQ6fqHlTKoOG2xSztjK7SQNwB+3VFeA/sgf8FPfgP8At5aZ53ws+JnhvxLeKoabSzMbXVLbOceZaTBJl5B5KY9DXvqnKj6UALRRRQAUUUUAFFFFABRRRQAUUUUAFFFFABRRRQAUUUUAFFFFABRRRQAUUUUAFFFFABRRRQAUUUUAFFFFABRRRQAUUUUAFFFFABRRRQAUUUUAFFFFABRRRQAUUUUAFFFRyyCMEsdvv0x780ASVXvLqOxgkmmkSKKIF3d2CqqgZOSSOAOeeBX5z/8ABTz/AIOVvgj+wFNqnhjw7cR/FT4kWJMUul6TdImm6XLkqUu73DIrKfvQxLLKv8SIOR/Pt/wUL/4Lr/tA/wDBRG7u7Pxb4un0rwncN8nhfRC9jpCr/dljDb7k9ibhnBB4RaAP6Fv28v8Ag5n/AGaf2LLi+0fSdem+K3i+zcwvpvhZ0ls7eUb8pPfsRbIwZCGVGeRSRmM1+Ln7dP8AwdS/tIftUx6ppHhfWLP4S+GrsPFHbeE96agY2TbiTUJh5pbljmGO3YYXBGCa/L66uZLmTc7bscDgAD6AcflUVAHSeMviVrnj/wAQXmratqV5fapqDF7q8nuHmuronAJkmkLSScAD53PQVz+0+35U1WxXoHwG/Zj8d/tM+OrXwz4F8K694q128CtFY6TYyXdwFJQBysYPlod4+eTZHjksKAOBqzaaZNfoWhjYpH99zwif7zcBfxNftJ+wp/wZzfFD4lnT9Z+NfibS/hvpLFXl0ix2aprTLg5DH/j1gbp/FcDr7V+vf7GP/BAv9mD9iCHTLrQfh3Z+K/E2moir4h8WY1jUN6qR5ieYvlQN1/1Mca/N06UAfy4fsmf8Ei/2hP21Y4Jvh78LPF2uabcKrJqf2QWWmEM2AftdwY4WXgndE0hwOAeK/Sn9mD/gzC+IniJY7v4rfEjwf4Pt/NUmx0SCXW70xYGQZZRDBG2d3ISUADPOeP3g/aO/bF+E37HXhiPU/iV8QPCPgWxbMVumqahHbyXDBSRHDFne7bVJCopJx0r8zP2rv+DxX4H/AAtS4s/hX4N8VfEy9jCGK/viPD+lSbiQSplV7pto5wLbnI570Aesfs8f8GpP7J/wdtoZPEGkeLPiXeRS+fu17WHgtmYdAba08mIqPRlb3zX2b8KP2M/gT+yPokkvg/4a/DP4f2f35biy0e0sSSFxueXaCflUEktniv5tv2pP+Ds/9qD42yzW/hfWdB+GOkvKxWDw3piSXfl7cKrXd35pznnckUZGO1fAHxt/bG+Jn7R+om78e+OfFnjSdp2uA2vaxcakqOST8scrtEg54CIoA4GBxQB/YF8cf+C1n7Kf7OT31v4j+OXgBb3TiRPYaVfDVrxGxnb5FqJH3HsMZNfKfxj/AODvX9lz4eO0Wgaf8TPGkzZKNa6PHpsBHqWvZYWwfZS3tX8sdxqlxcIVaQrGf+WaAImf90cVVPWgD+hb4lf8HtGn2d80XhT4ErNDyBPrXi0RsPqltbSg/wDfYrw74k/8Hpfx11KYr4X+Hfwl0aPcRuuo9Q1JgvbH763Gf84r8WqKAP1m1b/g8K/an1KPEMnw309vW38IO2P+/l69YV5/wdxftcyn934o8Hw/7ng635/OY1+W1FAH6kWv/B3F+11A/wA3ijwdP7P4PtsfpKK6DR/+Dwz9qfTUXzm+Gd8ygZ8/wlIob6mO9X9K/JeigD9rfhl/wenfG7TTt8VfDf4U6x83D2jX+mkj6F5x/OvcfhX/AMHsujX2ovD4y+BVxbwqBtudB8VR3BZu+UuYINo6YO459q/nhooA/qw+DX/B3P8Asr/ElZo9etPiV4HkhOGN/oI1CFxjqr2Uk+V7cgdOgr6Y+Hn/AAVV/Y9/bGhs9Lsfiz8JfEcmrAJDpet3EFvcz5Unb9nuwrlsA/KVyMEYr+Lerya7eRwxx/aJJIYyGWKQ74lIGB8pyOntQB/ZR8S/+CGv7I/x4kXWIPhL4V0HUzOt5ba14Nmk0G6imB3CWOayeP5txznmuq+E37HfxW/Zgu4bfwX8cvEHjjwnG3/IA+JlsmsT20QBAitdUtxDdJ1TL3P2vhOm5i9fx8/An9uH4sfsy30U/wAP/iB4w8FvHKJguiavcWMTNnJzDG4hbPo6MPavvz9mX/g7i/ae+DMtvb+Kr/w38TdLWUeYmu6YsF4YvRbq08oBvQtA5+tAH9RvhTVtV1HTFbVtJ/su8UDzUju1uYicc7HwpYZ7siH27Vsr90V+PX7J3/B4f8D/AIr/AGez+JnhHxd8N79ojJLeWSf8JBpabSo6wgXQznIzbgcEZzwf0x/Zu/bS+E/7XuhSal8MfiJ4T8dWsJ2THR9TiuZLdsK22SMHfG2GU4cA89KAPVKKFOVooAKKKKACiiigAooooAKKKKACiiigAooooAKKKKACiiigAooooAKKKKACiiigAooooAKKKKACiiigAooooAKKKhuVaVGVZGjYggMoyVJ6Edjj8R60ATUV+Z3/AAU7/wCCkX7VH/BJnVG8VX3w98E/Gr4I3tx5cev2v2nRtT8Os2dkOo+X58QUnhbpIkiJ+VhExQP4N8NP+D0v4W6hpSt40+DfxA0LUFA8+DSNT0/URG3RgPOlt3ODkY2A8dB0oA/aqivzP8F/8HYv7JHiqzjlutQ+I2hOy5aO98JXMhT2zb+aDj64rqT/AMHRf7FqQhpvidrdsT/DL4L1oY/8lcUAfoPRX56v/wAHSH7FZH7n4m65eSf884PBmtFv/HrUCuX1z/g6k/Z31PxPp+g+A/DPxi+JniLVrlbPT9M0Xwq0M97K3RUF1JEW9SFBIGWxtUmgD9MqK87+Anjzxt8SPDEWs+LvBUfw+a9QPDotzqiahqUAIUj7S0I8hJBkgxxvIBgfOelehI24UAOoqORwmSx2/U/j3r88P+CpX/Bx38E/+CeNtqXh/Q721+J3xPtSYW0TSrpfsWlSckfbroArHjB/dIHmP9wD5gAfZn7Uf7VngD9jP4Qal46+JHiax8L+HNNGGnuDukuJCCVhgiXLzTNtIWNFZiRwODj+az/gsB/wc9/Ej9uE6j4N+Fz6t8MfhjcKqGK3uDDrmsDOSLu4if8AdxsBg28B9pJHy0Y+J/8AgoF/wU1+Kv8AwUo+LS+L/iXrxv7q1ie30+wtka30/R4XILxWsG5hGGwu5iWkfHzSMNqr88mgCbUtUn1WffM+4rwoChVQegAwAPYDAqqakrT8L+F7/wAYaxa6dptrNdXl9PHawxxIXeWSQ4SNVALMzH7qKCzHgAnFAGRXp37M37IfxE/a++I1p4U+HPhHWvFuvXYDLZ6bbeZIiHH7yQkiOKMZz5kron+1niv1i/4JSf8ABph4y+NlvpfjX9oSTUPh54VmEdzD4bg2/wDCR6guSSkwYFLFWG3jDzkdoD1/fb9lb9jb4ZfsSfDSPwn8LfB2i+DdF3CadbOLM9/KEVPPuJ2JknmKquZJWZiAOaAPxv8A+Cb3/BnXZ6Ilj4k/aO8TNJcYD/8ACJeGbkrjr8lzqHDdcHbbKnOR5riv2g/Z5/Za+Gn7IXw/j8OfDfwb4b8EaBaqSYdNtFtw+OS8r43SN3LuSx5Oa+Mf+Cln/ByL8Bv+Cfk+peHNKvP+FpfEeyGyTRtEukFlpshD7VvL45iiOUIMcfmzjjMeOa/AH/go3/wX8+P/APwUSuL7S9e8USeG/A9y7oPCvh8vY6a8Z3AJcEHzrzKthvOfy2xnykoA/oU/bu/4OQv2af2IWv8ASY/E3/CzPGVgXik0bwpLFeJbTKSmy4uywtoSGDBlMhkBBAQnivxa/bk/4Oy/2iv2m0udN8C3Vh8G/D82QsPh3NzqTKVxiS/njDDuf3MMRGB8x6D8sr7VJ9RZWldm2fdUYVYx32qOF/CqZoA6jxt8VfEXxI8V3mua7rGo6xreoP5lzqN9dSXV7O2AMtcSM8rcAAbmIArnG+8e/PX1qKigAPWiiigAooooAKKKKACiiigAooooAKKKKACiiigAoor0T9nj4HQ/HDxDdWt14u8D+DbOyh82W98S6v8AYIOeMKqJJNKeCdscbHp0zyAeeqxQjHB6g9MV0/w++JHiXwV4tstW8P6hq1nrent5lrfafcy299bHaV/dzRFZV4YjAYDnoa+zfA/wG/Yb+EWgR6l4++NHxa+Js0gjK6d8P/Ag0eFjnGDeauVyD/fVIyOwr1KH/gov+wP8CXjbwb+xprPxB1BQF+1/EPx01yuB3MMZuYx9FQUAXf2JP+Dp/wDaa/ZlvLHRfF+oaX8VNAtmVJbTxfKLfUljVCMJfxhZAxbaczxzkjPNfsX+wx/wc6fs1/tgajaaDr2vN8J/Gd1tVNO8SzwrZXDnAAiv42aAklgoSQxuT0Svx9t/+DlPQvhPYyW/wp/ZH/Zn8CbgSkq6M94wPYkLFb5P5Z9azNX/AODsr9pR7fy9Hs/hP4c4xjTPA6hVPt5t1J/KgD+q2yvIdQs4bi3kjmt50EkUkbBkkUjIYEcEEcgipK/kN8Rf8HPf7ZviG/eT/hb11plu3C2+l+HNIto1HsXtZH/8eIrm9X/4OJ/2vdVZi3xw8eru/wCeT2EOP+/dotAH9i1Ffxk3H/Beb9rWdmY/Hr4pLuOfl1lF/wDaVVpP+C7X7WRb/kv3xW/8Hg/+N0Af2f0V/GTYf8F6v2ttPOV+PnxQbnP7zVY5P/QojXRaR/wcafthaKV8r45+NpP+u6adN/6MtGoA/sUor+R/wP8A8HTH7ZfhK5LT/FSDWoSc+XqnhjTJ9o+sMEJ/WvWPDP8AweM/tRaKYftVj8K9c2MDIt54ZuLdpF74eK9wp99lAH9RFFfz1+Bv+D2XxZaxw/8ACSfBDwhqXK+b/ZXiW5tZMdyqy20in6bx9e9fRfwt/wCDzP4D+IZ7OHxX8O/iV4ZN0QJJ7T7BqkNvwTllS4Wbt2jJ5HFAH7E0V8O/Bv8A4ONP2O/jTc/Zrf4yaT4bvAF3Q+J7K50TG7p+8uEWNv8AgLnFfXHwz+N3g340aHHqng/xZ4a8VafKoZLrSNThvoWBGRhomI5B60AdVRQOlFABRRUZ60ASUVHUg6UAFFFFABRRRQAUUUUAFFFFABRRRQAUUUUAFFFRsm4/yoAo+JvDlj4w0S80vVrGz1TS9Qhe3urO7iWaG6idSrRujAqysDgggggniv5m/wDg4y/4N+f+GHL+6+Mnwqt2f4S6jdLHe2IO5vCU8rbY42J62buVWOQn90zLGx2tGV7T/guj8ev2m/8Agj3+3zr3/CvfjH8StN+HPxEB8T+HrKTVft1hYBmVbu0jjuknRFhnIYIqqipcxBQMEV8w2n/B0H+1Rr/gLWPCvjHxN4V8feHtes5tP1Cz8ReEbG7jvLeUFXjkWFYFZWVipBXGD6mgD85Zw4nfzN3mbju3DnPfNNqS7kWa6kZY0iVnJCJnagz0GSTge5J96joA3vAHg/UviN4s0zQdJs7rUNQ1S5is7a1tozLNczSusccSKOru7qqrxlmHIzkf1pf8ELP+CG/hb/glv8JbXxB4gs7HW/jV4itB/bOrnEsejRvhjYWRI+SNeBJKMNMy7mwoRI/5Sf2eP2g/Fn7Lnxd0Dx54J1NdH8UeGroXmnXv2WC5NrKFZA4SaN4ywDtjcrANhsZANe7fGb/gtl+1B8d7dofEHxu+JVzaHg20GuPpsL5HO5LIQBvo2R6gnBoA/sE+OX7WPwv/AGX9Bk1H4ifELwf4LsosKZNZ1aC0yTwAA7Akk9AAc9hX5x/tg/8AB3T+zz8D7e4s/hrp/iL4tawBNHFPBCdJ0cSIQvNzcKJHQsSQ0EMoIBx1U1/MLrnxA1bxJrU2pXt5NcahcyGWS7lkaW4kY9WaVy0jfixrFnlaaQszMzMcksck/WgD9C/+Cg3/AAcjftFft1pfaP8A8JJH4B8G3RZTofhRpbCKePkBbi63faZ/lwCA0UZ7x4OK/Pu/vpbtwZJN20HaBhVTn+EDgfQcVUzRQAGpB0qOv0q/4IEf8ER7H/gpx4//AOEj8XeNtA0HwD4fuGW+02z1OJvEmqSLsKxQW/LQRHc2bhwWyMRoWxIoB86/8E3/APglN8Wv+CmfxUh8P/D/AMPzyafCPN1LXbtHj0nRk+XBuJwMB2DZSFcyyAEqoXLj+nL/AIJTf8EGvhB/wTE0Gx1W1sk8afE5YFS78VajCu63bHzrYQElbSM8g4LSuPvyOcY+rv2df2cfBP7KPwl0nwL8PPDel+FPCehxCOz0+xjCID1Z3P3pJHbLNI5LOSSSSSa6vXbK61DRrqGzvGsbuaNo4boRLKbdipAcK3DYPOD1I9KAPFv28P8Ago18J/8AgnF8LW8U/E7xNFpnmo507SbZfP1bWnUZKW1sPmfHGXOEQcuyjJH84f8AwVZ/4OavjF+3Pfah4Y8GXl18LfhnIZIG0rSL7F/q0ZcbWvLyPa5BUHMFuwj+Zld5lIx9Rf8ABT7/AINff2pPjt8UdY8fWPxb0X466pqIneWXW5TomtPGG3w26riS18tFJCxxm3jUjIRdxA/Jr9pn/gmH8eP2Qri6X4hfC3xv4ZtbKNZHvrvSnexAJIz9rg823wCMcyigDwi/1W41GXdNIzMvQABVT/dUcL+FUz1rSufDF9CrP9nkkjXkvBiaMf8AAlyKzT1oAKKKKACiiigAooooAKKKKACiiigAopdppKACiil2mgBKKKKACiirdtot3dQebHbTNF3k2EIPx6UAVKmW7lVQBI+AMCuw+Fv7P/jD4165JpnhHw7rXie+jVXe30bT7jU5FDZC5W3RyM4PUDpX138B/wDg2+/a5+PI02az+D+vaHY36q/2nxJdW2ipEpGclJJDOOO3lZHcZ4oA+EnZpDubP40V+2XwV/4Mtfi94iSaTxx8Rvht4TjYjyYrGO91ydF2jlji1TIOeBn6mvqf4Tf8GXnwb0GwtF8afFX4heIrq3aNpf7IsdP0iKYryRloppQG6cSZHqetAH81EFvJcybUWSQ+i81bn8PXlqima3kt1fBRpl8tW/FsCv65fh9/wbGfsc+BpLeW4+G+qeKJLcDb/bviS/u4zgd4vNEX47OOnFe8fDr/AIJIfsw/Cq6juNB+APwmsLqMbUuD4ZtJplH++6M36igD+KP+wbgKo3WzMzBVWK4SRiT0AVSWya9E8JfsX/FTx1BHJpPw/wDHWpLIMr9k8M6lc59MbIGz+Ff3CeGfhX4Z8GRKuj+G/D+kKv3VsrCKAD8EUV0KKERVUABRgADpQB/ENpP/AAS2/aO126jjsvgT8ZrzzSAHi8D6oi/UtJAqgfUiu90n/ghL+1nrUCyR/AP4oKrAH59IWP8ARpFP51/Z7RQB/Gj/AMOA/wBrj/ogvxM/8FsH/wAfqO6/4IH/ALWtmm5vgL8UWUddmkxOfyWYmv7MqKAP4kfE3/BJf9pfwlqUlrffAX4zQ+XndL/wheoTxrj1aGKQfrXH+Jv2Hvi14OtXl1b4d+PNOhj6td+FdTgVe5yXtwB+Nf3PUUAfwMvoVzDv8zyYnjYxuks6I6kcEFGIYH8AaZHo19LB5yWtxJDkgSJGWjBHX5hxX94vjH4P+EfiGjx+IPC/h3XFk4ddQ02G6DfUOprwP4l/8EWv2UPi490+tfs//C1pr7c0s9jocWnzOW6t5luEYNzncCDQB/FjBf3Wlu/ky3EO8YfaSufr61seC/inr3w51y31PQdUutG1CzyIrvTZnsrlc8n97CUk/wDHq/qU+Mf/AAaR/spfEOzRfDsfxB8BTQ48v+zvED6hGuBgfJfrcDH+RivjX9ob/gyl1yFb66+GPxg0PUjgta2HiTR5LF+P4WurZmT6N9n+tAHwF+zP/wAHHH7Wf7Mv2OGw+Kms+J9LtPlGn+Kkj1y3dP7peUC5wOxFwCBxX6L/ALLH/B6hDJ9jsfjN8KY22xA3Gr+D7/Y7MMcmyuyAM8nCXLnsAa/Or9pr/g3B/aw/ZkjvLy9+FuseJNJtFDm+8LSx67Ey+vlRYuePQwfjXxV4o+HuteDdcu9M1PTrqz1KxkaK5s54XhurdhyRJDIBInHPzqKAP7J/2QP+C3/7Mf7bt1FY+C/ilotv4gmOBoevbtG1KRtgfCQ3AXzRtP3oi69eeK+sEcSIrLyrDIPrX8DFrq1xpxQJIwVTuCPh0B9cHjPocZHY19k/sO/8F7/2lP2ELe2sfC/xCv8AV/DlrwmgeJA+s6Wq4ChUSVxNAvA4glRRz8uTQB/Y/Ug6V+RP7A3/AAdw/Bn9oL7Ho/xf0uX4S+IJCEbUkkfUNBmbcFyZVUTWwJIz50ewf89D1r9WvAPxB0L4o+EbDxB4a1jTfEGhapCtxZahp1ylzbXcTAFXjkQlWUggggkEEYoA3KKB0ooAKKKKACiiigAooooAKKKKACiiigAooooA/P8A/wCDjj/gniP29P8Agnpr0+j6X9v8dfDXf4l0JYkzPeLGhF1ZrxljNbmQKo/5aJEeoFfyG6pafYb6SMHcudyMP41PQ/jX9908fmxsrDcG4IIyCDxgg9q/j7/4OFP+Cdkn/BPz/god4q0vTdPa08E+MHbxP4VZYisC2lzIxmtFwioDbXPmptBciJ7cn71AHwXRQTk192f8EZf+CSfhX/grT4s8QeEB8Vm+HvjjR7YarZ2d34d/tK01eyBSObY63EJWWKRkLIc5SaNhkhtoB8J0V++Q/wCDJHWv+i7eEfx8IXn/AMsKmtP+DInU7qZVufj94fs4cgs9r4MuJJDz0Ak1DaMjvz9KAPwHqSGFp5AkaszN2UZzX9J3gb/gyw+E+mxqviH4w+PNS4Af+ztI06z3euPMimI/Ovob4R/8Gqv7IPwz061i1Twx4u8cPalGLa54luvLmKcjfDbtFCw9im32xQB/Jq+hXUMiLNC1uZPuecRHn6FiBRcaPLbAMz27dBhbiNyfTgMa/ts+GH/BLD9m34NYbw38CPhXpcxAUzp4atXmIHTMjIXP4k/Wux8UfsXfB7xrpkljq/wp+HOpWcq7XiufDVnIjD0wY6AP4X7rTLmwH7+CSFZOm9CA30q74b8W6h4M1SG802eTT7y1kEsU8JMU8LDoUlTEin3DCv7APj3/AMG6v7IPx7s3Enwj0vwbemNkS98ITSaJJHu9Y4CIpPXEkbD2r8yf2xf+DMLxRo802ofBP4iaP4ktVO5NI8Uxf2bfbQOVW6t0aCQ5/vQRf71AHwx+yP8A8HHf7VX7KEVra2fxO1TxdpFvvA03xen9u25BcMAJZCt2uOVGLgjBIxwMfpL+zD/wemaRqhhs/i78Iri0k2RhtS8IaolwrMTh8212YmAHBwk0h+tfkT+0/wD8Ebf2jv2SLmYeNPhH4206xhRmfUbawfU9OIU8kXNr5saqfvZkKHA5C9B8yyaFc7iI0+0BRkmAiUAe+3p+NAH9jv7O3/BwB+yT+0m8EOm/GDQfDepzFVTT/FavoVwxbGAv2kIjk5/gcg9q+udE13SfHeii50u/0/WNOuFwJradLiGQHsGUkHNfwTwapeaeCsc00KtwVBwrD3HSu6+DH7VfxE/Z3vpLrwJ408UeDbqZwzyaFq1xpu9hgBmELqj9MfOGoA/sg/aK/wCCRH7NP7VbX03jj4LeAdVv9Qj8qbUodMSy1Fhz0uoNkwxk87q+NPjj/wAGhH7NXxLvWuvDOtfEjwLcCNo1hg1WPVrXkgjK3scsnGO0g61+QXwE/wCDpT9rr4KS+XcfEOHxlYLGoS18UaHbX+wgkk+dD9nmO4YB3O3TtX2d8Df+D1/xFaW+nw/Eb4MeGdXb5Uvbrw5r02nyA7Tl0t7mKROWx8v2jjONx60AVPjB/wAGT3iqzjvZPAvxn8K6sw3Paxa5oVxYSH0VpYJpE69xEPp2r5c+LH/Bpj+1x8PbGSbS/CPhfxe0ZUeXofiqBpHGeSq3SW4OOuCQeO9frF8G/wDg78/Zl+IFw1v4i0X4meDbhQDul0iLVIXJ67TZzStx7qD7V9E/DX/g4W/Y4+J1sslt8c/DGjuSQYdehudHkUg4IIuY4+nTrigD+ZP4p/8ABCb9q/4QWbTap8CPiXNGj7WOn6Smphff/RJJjj8K8c8X/sOfFrwDE7a38OfH2keWMt9u8Lana7R774AK/s8+Hn/BQ/4CfFqLf4Z+NHwt11c7f9C8UWUvPpgSda9Bsviz4T1eHdb+JfD1yhHWPUYXB/JqAP4OpfC11DLJHJ9mhlhco8c1wkDqQcEFXKsPoeahudDmg+89mf8Adu4m/k1f3e63ceAdZgb+0m8I3ccnU3Jt3Vv++q8s+JVt+yxoFnLJ4ui+AdpDESHOrppKqp6nPmdxQB/Ef/Z8h/55n6SKf608aHdsMrbzEHkEL1r+tr4kfHT/AIJazwH+3r79kHVFUk4j07SNQOfYRRuc/TmvEPFn7cf/AASB8MXz2qeCvgtrU6DONJ+E0t6p+jpZFP1oA/mRewmtz+8jZP8AfIX+dOj0+SYcNb/jPGv9a/ou8W/8FYf+CUvgSRpLH9nbw/q09upaM2nwitIGJHQBrhIyOp5OBXOQ/wDByZ+wjoaxyaH+ybcxyKoK+b4a8N2e0/X7Sx/MUAfz9Dw9cEf6yx/8DoR/7PWr4T+FuveOb82uj6TqGrTKcMNPtZbzaf8Atkr5Nfvuf+Dt/wDZ98Jjbof7ME0G3hSt3o9v9P8AVq1Y+r/8Hsej+HZ/L8P/ALNMRh/6beM4bU/lHZyD9aAPxy8Of8E1/jz4uMY0n4OfFbVDMyqgs/BWqSZJ75MAQD1JOBXuPg7/AIN1P2wPHNmstl8C/GaMwBAvZtO09D/3+uUP6Z9jX6ID/g+Gvsf8m02P/hxD/wDK6tfwz/we72V7LjVv2c57WPPJtPHMdwcfR7OMfrQB8qeAP+DP39qjxdb28mpRfDvwuZNpkOo+JmmaMHGfkt7V849N4+vevo/4Yf8ABk1rk81pL4x+N3huxVSPtEOieGZ7pnXByFkuLhVHOOTEfpXrvh3/AIPTfhXdhf7Q+C/jizHfyNe02TH4O8ea9C+H/wDweM/sz+KdT+y6v4T+LXh/pmdtLsr6DP1t7qRuP92gCX4N/wDBnr+zV8P79brxJ4k+JvjKXYFaB9Tg0u2z6gWkMcnPvI3TjFfVHwV/4IQfsi/AWOE6L8CfBOoXVvL5yXevQPrdz5m7eG8y8aU53cg9ugrhPh1/wcwfsb+PtUhs5filceG7mZC6f2/4f1DTYsZAP76SERdSP4q+mvgt+3x8Ef2jUZvAfxa+HfixoyA0emeILW4kjJ6BkVyyn2IzQB6V4W8IaT4I0qOx0bS9P0mxjPyW9lbLBEv/AAFAAPyrUHSowwYZHIPIPrUg6UAJtFLRUZ60ASUVHUg6UAFFFFABRRRQAUUUUAFeWftefCjxt8XfgxqWn/Dfx9qHw28dQf6Ro2swwR3Vsk4ziO6t5EZZbd87WAAcZ3KysAa9TqM9aAP58/Gv/Bz3+1h/wT3+NesfD39oL4X+A9c1nQtkU6RRXOiTSu2SJI5o/tEU0MgXdHIkaqwB/iDIn0N8DP8Ag8t+Bnjd7OHxp8PPiH4QmuAN8libTWbeAnGc+XIs5A9fJ/AdK+1v+CrX/BIv4c/8FW/g2+h+KEbQvFumRv8A2B4ptIFkutKc4bY6Hie3dgN0LEAkblZJFV1/lj/4KTf8Ekfiz/wTM+KjaH448PzLpF9OY9G1+0Bk0vWupHkTc4kxy0Em2ZegDqPMIB/Tv8I/+DiL9jj4vhlt/jZoOgzxkB4fElrdaI6k+9zGin8CRX0r8MP2tfhZ8a9NivPB/wASPAvii2mAMcml69bXSuDzkbHOc1/CrFrF3ZOyw3M0I6bQ7KD7Y/xpw8Q3AXaVtWB6l7WJmP4lc0Af3zW11DfRb4ZI5o+zI24GvLv2k/2IPhD+2BoX9n/E74b+D/GtuhLRtqempLPAcFd0c2BJG20kAowI9a/ig8B/tV/ED4XwLD4d8YeK9FijAVY9O12+s0UDgALFMoAHoAAPQV28P/BT39oC0jEcPxl+LECgYCp431lcD/wKoA/dP9ur/gzm+H/xFgvNV+BnjK+8HaowMqaL4laTVdOkYIQqJc5F3EC2OXeZRz8h6j8Rf+CgP/BLH4yf8E1/GcOmfEzwncaTaagzrp+qQzJeabqIXkmKdDydvO2RI3wCdnGawNS/4KW/H3WITHefGb4tXkWMbJvG+sSLj6G6rynxz8R9c+JmtSal4g1bUtYvZsb57+8mupXwWIy8jM38TdT3NAGIk7QSbo2Mbr0YN1r6S/YG/wCCrfxm/wCCdvjSPUvhx4y1DR7O4m33+jzE3Oj6lnaGM9mxEZYquPMjMcvff6/M5OTRQB/Vd/wSw/4OivhJ+21PpvhP4lLZ/Cf4hXhjt4TdXm7QdZnclQlvcvhoZSQP3U6rywCPL1H6mQyLLErKwZWAII6EV/Ahp2pTabKskLbf7wIysg7qw6FT3B4Pev09/wCCPP8AwcqfEv8AYDuNJ8FeOpNQ+I3wlto0totPuLjdqmhxggZsbiRgGQL/AMu8zbPlARo/uEA/q0ory39k39r74e/tsfB+x8dfDfxJaeI/D9+drPFlJrOUY3QXETfPDMnG6NwGGR2Ir1IUAFFFFABRRRQAUUUUAFFFFABRRRQAV+Tv/B3f8Ffh349/4J4aX4q8S65oui+NvB+toPC6XDL9q1xbgrFeafCArOxMeyfjCq9rGXIUE1+i37XX7UXhP9jH9nfxX8TPGt99j8P+FbM3EyjHm3chwsVtED96aaVkjRedzOor+O3/AIKdf8FMPH3/AAUy/aK1Lxv4zvPs8LF7fS9Gt7kzWWh2e4FLWA5wRwpkcANK4Ln5fLVAD5jnTy53UMrbWIyvQ/SvuD/g3c+JV78Mv+CunwQuLK4mhbUvEQ0iZY3KiS3urW4glVscFfnRiD1MansK+HT1r9MP+DV79mXVPjr/AMFUvBmtRQSNovw7huvFOoyGAsieXA9rboW6KzzXQK56i3fAOCQAf1mLwopNooQYUfT0paAE2CloooAKK+K/+Clv/Bdv4E/8EzGuNH8RaxN4s+ICw+fF4U0F45byMZVd1zKzCG0X5gf3zBmB+RHPFfg/+3J/wdXftIftTT3+n+EtWt/g/wCGrgNHDaeF+dQ2FQP3uoSr5hO7ccwxwEZHJxkgH9Q3xY+Pngf4E6DPqnjbxh4Z8Jadbp5ktxq+pw2car65kYV8w/Er/g4O/Y1+FcUj6h8ffBd95RIK6MZ9WJ+n2WOTP1Ffx8fEH4t+Ivir4huNW8R6xqGuardnMt7qNzJeXT895pi0pHturCn1e5n+/cXEg9GlJoA/rl/4ijP2I5dqyfFXUY4ZgMPL4N1kRsDxkn7J0PqeKyPHf7Sv/BMP/goLNC3irXv2ePEmpXjeXHca1FBpOpbn/hWWZYZlJJzgMOeetfyWeex71aXxBfJAIxdXHkqMeX5jFCP93pQB/UV8Sf8Ag1H/AGRf2gNEh1D4d694x8KW4GYZdF8Rx65p7rjj5bxbjIHGNrr0618m/G7/AIMo/E1iuoS/D34yeF9W4ZrO38QaHPYSAkfdkmt5pExn+JYRgY+U9/xj+BH7WnxF/Zm8QLq3gHxh4k8GagssczTaHqc2nGQxnKh0hYJIOORIrgjOc5r9WP2Af+DwX4sfCa7s9F+N2kWPxR0HIR9UtY4tL1+BeecrttbggYGHWEnH3j0oA8L+NX/BqV+158LmWTT/AAPovjK2U4kk8O+I7adgOu4R3X2Zz6YAJ9q+VPix/wAEtP2gPgdfXEfir4O/E7Q4rcbzPc+GLyS3Ye00MckR/B6/r6/Yd/4KV/Bv/gon4IfWvhX4wsdamtYll1DSJh9l1bSQ2Qv2i1fEkYJDbXI2OASrMMGveGjWQY2qexyOtAH8Dt14du7QzJMsUUkEjQvE8qJKjKcEFGIYYIx0FEKa1pkO6EanbwsMgx71Rh2II4Ir+7Px5+z14C+KVnLB4m8E+E/EUFxnzI9S0mC6EnbnzFOa8A8c/wDBCz9kH4g28kd9+z18M7VZBgtpmljTJB2+VrYxlT7g5oA/jDfVrqObdLskf1mhWRv/AB4U4+JrrP3bH/wCh/8Aia/rW1//AINYv2ONVt/LsvBfi7QlxgLYeMtUYKPYSzSD9K8v8bf8Gcn7L/ie78zT/FHxh0EdQlvrdpcqT7+faSE/nQB/L1/wk11/dsv/AADh/wDiKRvENxIelr+FrEP/AGWv6ZP+IMP4Cf8ARTvix+MOjH9fsVCf8GYH7Psr7bj4mfF54+4i/siJj+IsaAP5oYvEeoJFtW+vI1/upKyqPwBwPoOKrpaX2tSs8cV3dN/EyK0n61/VV8O/+DRr9k/wTbRx3zfFLxFJEADJeeJ2gL49RbxxDn2xXtXwt/4N2/2OPhZI0tv8FNC1yaRg7SeIru61picAdLqRwBx0AxQB/HYukXQjZsxptJBV51RwR1G0kHOe2K9O8BfsN/F74o6dHdeHfhx8QNejlGUGmeF9SvN4/wBlooGQ/g2K/ta+E/7I/wAK/gbp0Vt4M+G/gXwrBDjYmk6FbWe3/vhARXoUMSwoFjVVUdAooA/jU8Bf8EBf2uPiJZxzWvwJ+I9usgBH22xt7DGR3+0zxEfjg+wr07wH/wAGsX7ZXi+ZxefDCz0ONfuvqXirTY/MHriGSbH0Jr+uCigD+WnTP+DPX9qa/jRpl+GtmzAZE/i5yV+uyyb9Ca1P+IM39qCUrt8SfBW3B7y+I9Qdh/3zp4r+oKigD+ZW0/4Muf2iHgTzvH3wbjkIG8Leak4B74P2YZ+uB9Kqaz/wZg/tLWz/AOg+NPgneL6yarqUH/to1f060m0UAfy+H/gzj/am0crJFrPwjmlHe08VXkR/Dfp4/nWP4i/4NM/2vNIkkkh0jwLrUjADzI/FkUkme3M1spGMdRj61/U5RQB/Mf8ABP8AYF/4Kp/sW6ps8IWfxY0zT7OMwxW+m+MNN1iwlUYwfs1zdvEAAMYEKn6dK+sPg7/wWr/4KAfsxX8Nj8bv2VPFnxC0ZViL6jpPhm7sNRUf8tCWs1uraRyPmUFIQSDlgGG39wKKAPiX9mX/AIL4fAH9oDVNP0PxFqWvfBfxlqREcOgfEbTX0G4ncsECwyy/uJiWIG1JN3zDivtSC4S7gSWNlkjkUOjKQysDyCCOCKra74a07xTZNa6np9jqNvJw0N1As0bD3VgRUHhXwVpHgXSxY6LptjpNirFlt7SFYYkJ/uouFX8BQBpVIOlA6UUAFFFFABRRRQAUUUUAFFFFABXK/GH4K+E/2gvh/qXhPxv4c0fxV4b1aPyrzTtTtVuLedfdWGMjOQeoPIINdVRQB+D/APwUV/4M7NO1yS88R/s5eJvsEjfOfCPia6d4+o4ttQw7gYzhblJDx/rE61+Kv7Vf/BOz4yfsU679g+J3w/8AFHg1vMWJLjULP/Qp2Iz+7u0LW0n/AAGUn2r+4qqOuaBY+JtOms9RsrTULO4BjlguIVljkU9QysCCD6GgD+Bm5sZrdQzxuqnkNs+Uj1B7iq5r+y749f8ABv7+yP8AtB31xfal8G9B0HUriRpZL7wzNPoUruc5ZhaPGj5JJIdTk818tePf+DN79nHxLrUt5o3jT4s+HllHNs17Y6jCvupuLRnyfdzQB/LtRX9MGrf8GW3wduE/0P4u/ES3bHWXStKkGf8AgNuleZfED/gyRtJ7wyeF/j6qQ4z5GseDlkJP/XSC5iI/75oA/nsor9mvjD/wZi/Hzw3eeZ4P8afC3xVZ7GLI93eaRcBgeMLJFOhBGesi818s/Gr/AINuf2vvgsdQkuvg74g1izs2JSfQLqz1iOZducqsUwmJzxjyc8d6APguiu4+KX7PPjT4Ja3Hpvi/wzr3hXUJUZ0ttb06fSpnC7c7VuUjY4LDoD1rjbmylsz+8Ur6N1B/GgD6L/4Juf8ABTb4lf8ABM/45QeMvAWsPCtwsdvqul3DM+n63boeIbmIH5gAWCyLiSPOVJG5G/q8/wCCVH/BWv4c/wDBVr4Hr4i8JzHRfFelKkfiLwpeTBr7RpWztYHpNbybWaOdMBgMEI6ui/xZV7B+xb+2n47/AGFfjpofj74f65Po2uaM52OAXhuIWI8y2ni3ATW8mAHjbrgMpR1VwAf3NqcqPpS18k/8EkP+Cs3gP/gqv8Af+Ei8OyQ6X4v0RYofFHhpp/Mm0e4bOHQnBktZdjGKQKM4ZWCyK6D62HSgAooooAKKKKACiiigAooqtqV9FplhPdTOscNujSSORnaqgknjrj0oA/nd/wCDxH/gonP4t+M2h/s++H9S/wCJT4Khj1jxHFDL8s+p3KE20TgdfItyZdv966iP8FfhlnNezf8ABQD9oy6/av8A2v8A4hfEG6ubi7/4TDxBeatC0yhWS3klP2aMAdAlqtumDyNnPNeO21tJdTJGi7pHOFHrQBc8PaDc+JdWt7O0ikmnuGEYVELscsFGFHLMSQAq8scKASQD/W9/wbpf8Es7j/gm3+xlHd+KtNjsfid8R/J1TX4fleTSYFQ/ZdP3gZzGrO8gyV86ebGRivh3/g2O/wCCBtlp+m+G/wBpT4vaS11NJs1HwLoV3FlUJGY9WnXuec2ycgBhOfmMYi/ehfu0ASDpRUdP3bV/CgCC6uo7KOSaWRI44wWZnYKoA6kk9MfX1Nfgd/wXC/4OlS0OsfDH9mTXHigSSSy1Tx7a7S91tJWRNMYggRA5H2wg7/8Aljn/AFy0f+Do3/gubHrU+vfs0/CfXpI7KymksPH+qWEpRr2VTtk0dJF5WJG4uSvLsDBkATCvwRuJ2upjJIfmbsBgD8KANDxN4ov/ABZrN5f6jPPd3V9M9zPLNK0jSyOxZndmJZ3JJJZyWJJJJPNZiRtNJtVS7dsHOa6z4OfBzxJ8f/iNo/hHwlo99r3iDXZxbWGn2MBnurqQ/wAMaLyxABJP3VUMWKqrMP34/wCCVP8AwaJaL4R0nTfF37TF42qatcQxyjwPpF4Y7W0bLblvr2M758gqDDAUjGCC8w+agD8Evg/+zn44+Puvf2V4K8LeIPFmqYybLRNOn1G4B3bQGSFXKZOcFwq8HmvtT4T/APBsP+2F8UmhZfhPcaDaypu+06/rdhYICeR+7WWSbOPVAfpX9WvwW/Z+8E/s4+Cbbw74C8J+HvB+g2gxFYaPp8VnCpzknagG5mOSSSSa7OIeWOOnSgD+WO9/4NCv2roLbzI9J8CzsefKi8YKrD/vq2A/8eP1NeFfHD/g3a/a4+A1pqF3qnwX8VahY2Bz9o0GS11xHX+8q20rTkeoEOe+MV/YsDkUUAfwTeM/hprnw91680vWNMvNP1HTyVubWeCSG4tsdd8TgSR9QPnUdawC2fSv7lP2tv2A/g7+3J4XfSfil4A8P+LFClILu4g8u/siRjdBcpiaFhngow/LivwQ/wCCuv8Awaf+MP2e7PUfHXwFuNS+IHg21WW6vdBnj83xBpUYAOYlQBb5FAbO0CcAD5Z2O4AH5Mfs9/tJ+Mv2XviTpfi7wN4i1jwz4i0eVJLXUNMumt7iIBtxj3D5WjY/ejkVo3BIdWHFf03f8EJP+DizQf8AgpEbX4bfEqPS/CvxghiAsZYD5OneLkVMs0KsT5N0MOzW+SGCl4mZQyxfyqywNC3PQ1peEvFeoeCtetNU0q8urHULGZLm2nt5WilhlRtyOjqQyOrAMrKQysAVIPIAP75B0or+bn9gL/g6p/aXs9BvIfFXgzw78atD8G6al9rM8TrpOuWlkjCN7yR4zIkiL8vmSfZ0SPerSMqNkfpv+xx/wc0fsv8A7VptLDWPE138J/EV18i2Pi5EtbWR/lwIr5Ge0fO5SA0isQfujBAAP0Poqpo2tWniHTIL2xuYLyzuVEkM0EgkjkUjIIYcEEcgjrVsUAFFFFABRRRQAUUUUAFFFFABRRRQAUUUUAFFFFABRRRQAUUUUAFFFFABRRRQAUUUUAFFFfOP7Yv/AAVk/Z8/YPeW2+JXxO8P6TrUYV10K0kbUNZkDHaMWcAeYAkH5iqqMHJwDQB9HUV+Hf7R/wDweneCdBvJrT4VfCfV9e2SyRf2j4o1SPTITtJCutvAs8pU4yA/lnnkA8V8U/FP/g75/as8ew3kei3Hw78FpM7rB/Znhs3UkMeTt/e3U0gZgMc+UoJ52jpQB/U1RX8eWs/8HIX7Y2rpsufjh4u8zHzta2ul2oJ748uzGB7ZrMs/+Dhr9rixm8yP45fEIsP79xZuPya1INAH9kFFfyL/AA8/4Ohv2xvBGrx3E3xal1u1VdptdZ8PabdRt7looYX9uGHWvqL4E/8AB6T8YPDcjRePvhz8PPGkGflk0+W68P3BHHBJN1GT1IO1fQ460Af0jUV+X37KP/B2J+zF8fpYbTxdL4l+E+oSFEMmt2wu9N3N63dqZEj+swjH6V+jfwr+MHhT44+D7XxF4L8SaJ4r0G/Tfb6hpN9HeW0w/wBl42K96AOmooByKKACiiigDF8WfD/QfHmnS2euaLpOsWdwCJYL+zjuIpQeMMrqQQfevj39oP8A4N3f2RP2iDLNdfCPSPCWpTbv9N8JTSaHINwPWOBlhc5OfnjYe1fblFAH4K/tT/8ABlbazadcXHwd+Lu64jtyINO8aaaG82QY2g3lmEK57k28hr81/wBrX/g3g/al/ZJS4u9U+GOs69otu6g6p4Zca9ahW/iIgAuVx3LW4A9a/sSprAN/XNAH8S37AP7Z3xE/4Jm/tV6N8QPChkt9S8Ps9tqdjIzLBeWjMvn2N2oG9I3KgkMN0cio4BZMN/YD+wX+254L/wCChX7Mnh/4o+BLif8AsrXEaO5sbpAl5o15Gdk1pcIDxJG+RkDDLtdSysrHN/av/wCCZPwF/betGT4nfDDwr4kvFQxRam1r9n1O2BwT5d3EVnTkA8OPxFeIfsHf8EZf+HYP7Qmpa58HfiV4ik+GPi2Mw+IvA3iREvEWRR/o97Z3igOk0PzpiZZPNjkCM48qMqAfda/dFFA6UUAFFFFABRRRQAV4h/wUq+KM3wS/4J6/G/xZa4F5oHgbWby2BOMyrZSlP/HsV7fXyv8A8FvJWh/4JG/tFMv3v+EG1ED/AL9Ef1oA/i511Gi1eaJlZWtz5JB6goNv9K/UT/g2j/4I1R/8FBfjtL8QvHWmWt98Ifh/dIL+Gc7o9d1HakkWnbejRhGWW4BPKPFHgiSQL8K/sufss+Iv2zf2wtB+GvhO3S613xdrv2C2VgDHFlnd5ZO3lwwxyzP6pEwHJFf2d/sY/sl+Fv2IP2Z/CHwv8Hxt/YvhOxW3NxIoWbU7g/NPdS44Ms0heRyONzmgD1G0t47S1jhhjWKKJQiIq7VRRwAB2A9KkoooAK+F/wDg4B/4Ka/8O2f2GdSvNB1GOy+JXjzzNC8KsNrSWTlM3F+FbKkW0XzgEENK0SkYcmvuVj97ucdM/wCev6V/JV/wc2ft5v8Atkf8FKPE+l6bfPN4V+GJfwjpKq7GKRoH/wBNnHABMl0HTcM5W0j5PSgD879e1i48Qa3dXl1NcXFxdSvNLLLKZZJWYklnc8sxJJLHknmuk+CHwT8TftCfEvRfB/g/RbzxF4k8QXKWWn6fZrma7mkyFjXPAyASWPyoqs5KqpYclFCZLhVVdzN0T1/z1r+kH/g0j/4JT2Pwy+D7ftJeLdNY+IfFkc1h4NjuUZXs9O3BLi82NwGuZI9qMB/qIkKnE7ggH1x/wRE/4IeeD/8AglP8J4dW1SPT/EXxr8QWaJruvpGWh01CATp1huGUt1b78gCyXDje+AEjj++kUBBjpimjpUg6UAJsFLRRQB5/+1F+0BpX7K37O/jj4la5DdXWj+BdFu9cvIbYDzpo4ImkMaAkAs23aMkDJr+eTwz/AMHinx8tv2gU1DWPDXgGfwd9ubz/AAxbaXKtwlsGP7iO+89ma4C/Kshi2O4B2IrHb+y//BwB4sXwb/wRv+P90zbfP8MtYj38+aKD/wBqV/G3ql/I/iO6uIWaNjcvKrf3fmJz+Gf1oA/vC+D3xW0X45fCjw3408O3kd/oPirTLfVtPuI23LNBPGsiN+KsDXRyw+dHtNflr/waZftnp+0X/wAE5H8AX19DNr3wd1E6WsXmhpBplzm5s2I6gIGmgAxj/Repr9TFGFH0oA/GD/g5A/4N/wDTv2gvBviL47fB/QWh8f6XHJqXiXQdNgyfE6KN0t3BGvJvlUFmVQftCrj/AFoRj/NXd2/2Wd4ztI7MucEeozz+df33XEayowP3c9fT8+1fy9/8HU3/AASktv2Of2nLX4reD9P8jwF8Vp5riW3hAWHSNXUeZcwKoHEc6h7lQejC56jaAAfnD+yD+1B4m/ZA+P8A4Z+IHhO7t7XXPDd4tzbtcL5lvID8ksEy/wAcM0JeKROhSQnqFx+s3/BRH/gib4T/AGzv2OdD/aw/Y70Sa10nxHpZ1XXvh1pqqbjTZBkXcdhChxvhkEiSWQ4JRjDj/VyfiS3DkfxKfyr98v8AgzO/blmTXvHfwB1m+zZ6hbf8JT4bjfOIZ4tkN9Cp3cbo2tZgAF+YXDZJJwAflr+w1/wV4+On/BOnVof+Fe+ONS0/RxL5r6HMftmh3gLMzZs5CETcWbLQmJyerZGK/db/AIJr/wDB2p8J/wBpOCw8P/G60t/hL4omCxtrCStN4buHPd5WzJZknj99mPI/1pzXkP8Awck/8G8Fr41s/EH7Q3wP0X7PrK+ZqPjfwtZQ/u9QGGeTVbRFHyzg8zxKCJl3SqBKreb/AD1TC50e74LQzRnIZW9ehBycqQc5BIIPpQB/fDoeuWXiXSre/wBOu7a+sbuMSwXFvKJYpkYZDKy8FSMEEcEGri9K/jj/AOCW/wDwXS+M3/BMLWrex8PaquveAZJw154S1aRm0p1Z90jw7dz2kpBY74QVLHLxSEgj+nT/AIJnf8Fc/hH/AMFRPhvJqfgTVJNP8RabGG1jwvqbqmqaVzjfgHbNAT92eMsh6EhgyqAfVFFIv3R9KWgAooooAKKKKACiiigAooooAKKKKACiiigAooooAKKKKACiiigAr57/AOCgf/BTX4Q/8E1Phq3iL4meJI7W9uYJZdI8P2JWfWddaPG9ba3yCwBKhpGKxpkFnXqeH/4Kdf8ABRbxD+zDo6+A/gz4D1j4v/HzxFbiTS/Dml2r3FtoMD71XUtUkUqsFvmNxGkkkZneNkVlCvJH+So/4Nm/2tP+CjHxOuviN+0R8RvDPhXXdbiH2l9SmfXNTj53CEW9uYraCKPICwxztGuDgcl2APn/AP4KZf8AB038bv2vdS1DQPh/eS/CXwHKGjS10W7P9qX8RIx9pv1wykr95LbZtJIErjk/l/q3ijUPEd9cXFzcTXFxfSGe4csS9xId2WduS7HcxLMSTuYkk81/TJ8Ff+DNz4A+DXtZ/F3j74keMJoU2yRWr2ukW8p7kmKJp8H0849ep6177oX/AAbA/sX6Y8D3nwx1bW5LcDH9o+LdXmUn1KfaQn4YxQB/IoNKuXXzBaysnrsPNQtlGI+7jjB7V/Y1J/wbm/sWzWRt2+A/hvYw6rd3iuP+Bibd+tcXr3/Brf8AsY6rBMlj8PPEOgrOSxGn+MNWVUY+iyXDp+GMUAfyL0V/S78bv+DMT4M+JrfUpfAnxQ8f+Fbu4ZpLePV7e01q0gbHCn93DOUz6zZ9/T4M/au/4NBP2jPgvbXl/wCBZvC3xV02DZ5cej3n9nakQWw3+i3bBGwOcLcknsDQB+StFd/8a/2YvHn7PHjK48P+NvCPiLwxrVuTustU02WyuCAcFlSRR5i+jRllxyCRg159Iux2HocUASQzvbyb0dkZehBwRXr37LP7dXxW/Yx8bp4g+GvjnxH4N1LIaV9LuhHFefKwH2iBg0Fx94n99G/IBG0jNeN0UAf0mf8ABKv/AIO3/CfxhXT/AAn+0la6b4L164dYIfF2lxSLotwzyCOMXUJLyWbcqWly0A5YtEMCv2o0nVLfXNKtb2zuIbyzvIkngnhkEkc8bAMrqw4ZSCCCOCDX8Clpdy2UySRyNHIuGVlPzKenB7f4V+nP/BC7/g4L8X/8E5vGFr4G8aXWoeLPg3qVztl0wsZp/DxbAM9gOcL/ABPbAhH5MYWQkSgH9XVFct8IPi74c+O3w40fxb4R1qz8QeG9ftUvNP1C0kDxXcTgFXU8HoehAxXUjpQAUUUUAFFFFABRRRQAUUUUAFFFFABRRRQAV86f8Fc/CN548/4JeftB6TYQyXF9d/D7Wvs8KfelkWzlZVX3JAA+tfRdY/j3w1H428Ea1o8yLJDqtjPZyKw4KyRshBH0NAH4h/8ABn3/AME/47TQfGX7TGuWP7/XppvDnhLzFZRFCJFfULpRvK5eVY7cNtUgWknUSGv3TQYRfpXlH7EP7Mun/sa/skfDn4X6a0csHgnQLTS5J402i7njjAmnx/ekk3ufdq9YHSgAooooA8q/bb+P0f7K37IvxO+JEiSS/wDCEeGdQ1mONMbpZIbd3RBngEuFHPHNfw6eM9avPEniq6utQuJri+mlJup5WLSSzMcyOx7kyF2J9TX9bX/Bz346uPBv/BHT4kWlpeNZz+Jb7SNHZ16mGXUrYTL9GjDKfYmv5Ebm4a7uJJW+9Ixc/UnNAHqn7Ff7POoftZ/tVeBPh7payLc+MtdtNHV41VmtkncLLNz08qESyg9vK6V/cD8NPh5pPwi+HHh/wnoNpFp+heF9Nt9J061iUKltbW8SxRRqBwAqIoAHYV/Jz/wbXabb+HP26NY+IzadJrF18H/APiXxza2IdlF1cWtmkES5Hr9scdDjOe2aj8Z/8HPf7a+t+JLy7tvi8+jW94wuUsbDwxpP2a0Djd5cfm20kmxc4XdIxwBkk80Af1y1IOlfyBt/wc0/tuD/AJrhqv8A4TWif/IVfr9/wbbf8F7PFn/BQ7Xta+E/xiv9JvfH+l6cNU0TV4LRbKbXreLal1FNEgEIniLRyBowokSVvkUwuWAP1+orF8b+OtG+GXhDUvEXiTVtN0HQNGtnvL/UtQuEt7WxhRdzyyyuQqIoBJZiAAOa8l/Zv/4KT/AX9r/xpeeHfhj8WvBPjXX9PieebTdN1JHumiQqGlSNsM8YLKC6ZUbhzzQB8zf8HSV7HB/wRn+INnJ/q9V1nQLV/p/a9o5/9F1/Jn4P+HGveO7XVpdH0u81KPRdPm1S/aCPcLa1jKLJK3oqmRMntuBr+oX/AIO/PiFH4N/4JX6RYtuZ/EXjzSrVCDx+6jubpv0tzX5N/wDBrP8AAnR/2ov2yviR8P8AXo2m0bxN8J/Eel36q5UiG7k022OGByG/eMRjkFQR0oAtf8Gof7ZMn7NX/BTDTfCGqXU1vofxUsZvC9xGxAiW8XddWTt33B47mEbe90Mg9R/VcOnr7+tfwy+MNG8WfsRftZ3li839n+Lvh54haEzZyE1DT7r5JTuxw00Cv15R+vNf1kfB3/gvt+yn8QfhR4Y17Vvjd8PfDeqazpVreXulajqiQ3emzyQo8kEq/wAMkbMUYdipoA+0q+Uv+C0/7Gyftzf8E3/iZ4NgtUuPEFrpza54eJxlNSsszwAZU437Wibg5SVhkZpR/wAFx/2Q8f8AJxPwp/8AB5HXT/Bj/gqd+zh+0l8Q7Twf4H+NPw58VeJtWWQ2ek2WsRSXN9sUu6xpnMhChmKqCdqscEAmgD+JbU7ZbO7kRdwjwJY93Xaygrn8CK+mf+CNf7SM37Kv/BRz4Q+Mo5lit9M8UWdre732qbK8f7DdH3IhuWbHqg6dRwn/AAUL+Etv8B/23Piv4Ls7OPT7Xwv4t1jTIIUUKiwx30xh2gcBfJMWB6V5P4cuVtdV8w5UxxSNGR95HCNtI+jYI9wKAP74pUW4hMbKrLICrKwyGBHIIPUHpiv5h/8Ag56/4Itw/sZfGCP4vfDnS7qP4a/EC/ma8t0YyxeHNVkO9rcAksLe4O+SLA2xyeZFwGhUf0l/s7eM/wDhY3wE8E+Id27+3tAsNR3f3vOt45M/+PVlftZfsxeE/wBsz9nrxZ8M/G2nQ6p4c8W2L2VzFIuTE33op0P8MkUgSRGHKvGpHIFAH8J5612/wD/aB8W/s2/FDRfF3g3XtU8PeINAulu7G+sLjyZ7Z+ASp5BVlG1kcMjrwysOK6X9uT9lbxB+xN+1d44+GPijaNb8H6rJYTSqgiS6QbXhuURSdsc8DwzKvG0ShcZU15GRg0Af1hf8ENv+Dhjwr/wUosNP+HvjyTT/AAr8aI7UtFEp8mx8WiNSZJbMEnZcBVLyWxO4Dc6b0DFP02ByK/gg8FeNNS8B+IbHVNKv7/TL7TbqG8tbqynNvcWlxEweKeKVcNHKjKCrqQwI69RX7e/s7f8AB6N4p8FfDjw7o/xB+FOm+N9Y020W11HXrPxCdLutTdRgTvam0aFJHwCypLtyWIAGFAB/RFRX4w+FP+D0T4O31uja18JfiJYsQCwsdT0u6/INcRE/lXrnw7/4O3/2UfGllDJqCfFLw3LIFLRXvhd7ho888m2eUHHqpP40AfqFRXwb4J/4OW/2L/GmqfYz8YI9FuFXJGs6BqenLz0+ea3Vf1r1jw1/wWY/ZP8AF7xR2P7RXwf8yZgqLP4otbZ2J6ACR1OfagD6aoriPCn7Snw78chf7F8feC9XL/d+xa3bT7vptc12NpfQ38e6GWOZfWNwwoAmooHSigAooooAKKKKACiiigAooooAKKKKAKdvpdtZ3VxJHb28Ul1J5szrGA0rBQu5iOpwoHPYCrSoAo+UdKdRQAUUUUAFFFFABRRRQBwP7Qv7MXw9/as8AXXhf4j+D/D/AIy0K6GHtdVs0uFjPUMhYZjcdnUhh2NfiX/wVH/4NCI103UvFv7NWqXV00SPO/gvWroSTkAZ2WN65BZicAR3RYkniZOlfvlUZ60AfwY/Fr4ReIPgn4/1Tw14o0fUvD2uaLP9lv8AT9Qt2gubKXGdkiMAVOOR6j5lLAg1yp61/ZT/AMFa/wDgit8Mf+CqPw9updTsbPw78TLGzMGkeLYLYNcKFJZLa6C7WuLbcT8hIKbi0ZV+a/k0/bU/Yq8ffsD/AB51r4d/ETRZtH17RZMZJ8y3vIW3eVcQSYAlhkCkpIAM7WUhXR0UA8hqWGTLKM7WHQ9weoqJjk0UAfsf/wAGt3/BZG+/Zs+O9r8EPH+tXDfDr4hXwi0prph9n8OatLwjqTykN1IVjkGdomaN8fvZGH9Ni/dGfSv4E9D1D+zNQhm3SoqkBjEQJAvcqSDhvQ9mwe1f2Y/8EOv24pP2/wD/AIJv+AfGWpXkd94q0uFvD3iSQMuZNQsz5TzEDoJkEcwGBxLQB9eUUDpRQAUUUUAFFFFABRRRQAUUUUAFFFFABRRRQAUUUUAFFFFAH5n/APB2Mkjf8Ekr9k+6vjDRGf8A3ftBH8yK/k3HSv6/f+DmP4f3Xj3/AII5/FCWzg+0TeG7jS9eZM4zFbahbvMc9tsW8++K/kEniNvM8Z6xsVP4UAfsD/wZmW+nXX/BRfx5a3UUM1xd/De8SNJU3o8Z1Gx81cdCMeXkH1r9h/FX/Btd+xP4w1241K4+COnW015IZXjsta1Ozt1JP8McdwEQegQAAcAAV+F//Bp18aLf4Wf8Fa/CenXSyLH400jVvDayr90SyQx3kan6mwYD3Ir+r5elAH5g/tQ/8GrP7Kvjj9nvxdpvw1+HreDPH0+mynw/rH9v6pcLZXgUmJnjmuGR0LDawZTwxIwcEfzafs/fGDxp/wAE8f2zdE8UaXHcaL4w+HevGVrK4faYrmCR4Li0lJ42sBNbOf7sjEdq/uI2iv5rv+DvT/gm7/wpX9pHS/jr4bsfJ8N/FKX7PrBjAC2uuwxD5jkjH2q2i3AKCPMtJWPMooA7j/g5v/4LP+Gf2l/2T/hT8OvhxqguNI+I2kWnjvxGituaKJt32HT5hgrvW4SWZ0JBBtI88Sc/kl+wP+1FqX7Ln7ZHw7+In9qajD/wiHiKy1ad4iZHa3WdBdpjnKyWhuEYd1J68GvJvDPh7UvHms2ul6ba3F9qF5IkFvbWsJeS4ldhHGiooyzu7IgAHJYDPNepftm/si65+wV+1X4h+F/irUbW41jwvcxWOoTWRO1RNaQTkrnnGy5Az0JVqAP30/4PM/E0d1+w58H7eGRZIdS8XXF5Gw6Oq6ReAEfUS/rXzH/wZQeE937UHxc1v/n28HWdr/3+1CRv/bevLv8Agud+1vfftL/8EmP2DdRkun1C6vPDmrprE8nyyG+05bPTJ2ZcdTKZScV9G/8ABkd4cmlk+P2sNGqwwW2gabC27Jc79Snf6YEifWgCH/g44/4N/fix8fv2vr/4xfBnwnceMNL8apBLrWm6bNAt7YahHH5Mk3kzPHvjmjjgO5GJV1fK4bcPzvh/4IC/tmQRLHH8HfiekaAKqqLZVUDoAPtXFf2IL90f4UUAfx4/8OCv2z/+iP8AxR/8lv8A5Lr3X/gmZ/wQf/a28O/t6/CfXPEXgHxb4R8P+F/FOn67qWs61Nbxw2EFpcx3EmwLcO7yyLH5KqiEnzucKGr+pmq99cx2Vu80jLHHCrSOx6KAOST9KAP41v8AgvfLDN/wVx+PRgIkX/hM7xSR/eENuGB+jZr48sv9f7bGGfTg8169+3z8X4vj5+2V8UPGVtcfarXxV4r1XVoJQch47i8leIg+hh8uvL/C9k2oasIY42mkljeOONF3NJI6lEVR6l2AHuaAP7cv+CYqXkX/AATm+A66i+++/wCFf6EJj6v/AGdBu/XNe6DpXK/Azwcvw6+Cfg/w+q7V0LQ7LTgAu3AhgSPp2+7XVUAfg3/weXfsGQ6po/gX9oLRbV1ulZfB3iIxq21xmSbT5nwcAhvtEBYjn7RECcItfz1mv7mP27P2L/CP/BQP9l/xL8KfHEmrW/h/xJ5DyXOlTrb31nLBPHPFLC7Kyh1kjUjKkHkEEEg/n2f+DOT9lt/m/wCEk+MS55wNetsD6ZtqAP5a6K/qU/4g4v2W/wDoZPjJ/wCD62/+RaP+IOL9lv8A6GT4yf8Ag+tv/kWgD+Wuiv6lP+IOL9lv/oZPjJ/4Prb/AORaP+IOL9lv/oZPjJ/4Prb/AORaAP5crbUbmz/1NxPH/uOVqabxFf3KbZb26lX+7JIzj8jX9Q//ABBxfst/9DJ8ZP8AwfW3/wAi0f8AEHF+y3/0Mnxk/wDB9bf/ACLQB/LvHr80MWxY7HaBj5rOFm/Mrn866vwF+0V40+FqoPDfifxBoKq28DTNWurEK3qBDKij8MV/S7/xBxfst/8AQyfGT/wfW3/yLR/xBxfst/8AQyfGT/wfW3/yLQB/Pr4M/wCCsv7SHgLVYrzR/jj8XLCSFduweL9QuIiOv+rnllXt6V7F4f8A+DkL9sTwxEq2vxw8XTFMYF/a6XeKcevmWhY5/wB4H3r9qP8AiDi/Zb/6GT4yf+D62/8AkWj/AIg4v2W/+hk+Mn/g+tv/AJFoA/LfwN/wdyftaeGbNUv/ABB4L1yRAMm+8IoS31MM8X9K9U+G/wDwel/HbSZCvib4e/CjXUzlWtYr/TG2+/72cZ9xX3p/xBxfst/9DJ8ZP/B9bf8AyLR/xBxfst/9DJ8ZP/B9bf8AyLQB8z+Fv+D3G6hvbdNa+AekXVuz7ZZNN8ZSxyRr6hZrIKfp5gr2Hw3/AMHovwZnt1k1j4T/ABGs+BuFjfaVeNnvhWuYyfyrt/8AiDi/Zb/6GT4yf+D62/8AkWj/AIg4v2W/+hk+Mn/g+tv/AJFoA6T4e/8AB27+yb40tIZL9/iZ4clkUForzwtJO0eR3Ns8o49sj0zXqvgf/g5N/Yw8c3P2cfGa10eZcAprOialpvX0aaBQfwJxXg3/ABBxfst/9DJ8ZP8AwfW3/wAi1JB/wZ2fsv2zZj8U/GiM+q+ILdf/AG2oA+zPCn/BYv8AZU8aXMcGm/tDfB+W4mOEifxRaQu59AsjqTXsXhP9oXwD48iWTRfG/hHWFkwVax1i3nDZ6fcc1+ad5/wZ6fsw6hC0Vx4q+NM0fUrJ4ht3B/O2qBf+DN39lVV2/wBu/Fr5uudYsyfz+yUAfq/a3cV5EHhkjljP8SNuFTV+Y/gX/g1e+CfwtjSPw18VP2jPD8cf3F03xqLMJ6cRwL+lekeFf+CGFr4DmWXRf2o/2wNNmVdisPiP9qjRcg8RXFvJH1A6qfTuaAPvCivlvwd/wT08deDJ4mg/az/aSvY48Zj1GXwzeK4HGGL6KWP1DA17H4T+E3ibw1FGt18TPFWuFON1/YaYGb6+Tax0Aeg0VVsoJ4IwJrpp2AwSYwu734q0OlABRRRQAUUUUAFFFFABXwp/wXZ/4JGaX/wVG/ZeuF0m2s7f4qeDoprvwvfSjb9rBw0unSt18qcKArHPlyiNwCFKn7rpp6/496AP4HfGHhO88FeI73TdQtb2xvLGZoJre7tzb3ELqxV0kjPKOjAqynlSCO1Y561/W7+1/wD8Gwf7Of7ZH7Rfir4l65efEDQdY8YXQvdStNC1KC2smuNirJMsbQOweTaGb5iC5LAAsa8y/wCINz9l8/8AMyfF/wD8Hlr/APItAH8t4bBr+hb/AIMnvjPe3eh/GzwBcSI1ki6T4ltE7pIwns5v/HbW3r3r/iDc/Zf/AOhk+L//AIPLX/5Er6X/AOCZP/BDf4U/8EpPiR4m8TfDnXPHmoXHijTItKu7bXL+C5t0RJjKJECQRsHySOSVx2BySAfaoORRQv3fSigAooooAKKKKACiiigAooooAKKKKACiiigAooooAKKKKAPN/wBrz4E2f7T/AOy98RPh1qBZbXxx4dvtEdkIDJ58DxhhnupZT+Ffw2/EnwxqPg7xnqGm6tbzWeq2c8lrfQS/6yC4jYxzI2O4kRgfpX97DoHBXH3gR0r+UP8A4Onf2DJP2Sf+CjuteKtO09bbwn8XlfxRp8iRgIt4Sq6lCMEncJzHOchR/p3U80AfBf7KPx11b9mn9oXwf480Hzm1jwfrVnrVkkUzQmaW3mWQREr2lUPEQQQVlPB6H+4T4IfGHQ/2hPg54X8ceGrxL3w/4u0u31awnTpJDNGrqfYjdgiv4OI5mhkWRWwV+Yfn3r+hj/g0k/4Ky2+u+Gbj9mrxtqixXlvJNqXgaa5m+a4Db5bvTh05Uh54gSSytMoGIaAP3dHSvMf2vP2TPBv7bvwA8QfDXx9p8l94b8QRqJDBL5NxaTI6vFPDIASksbqrK2OCvORxXpynK0UAfmH+wr/wa1fA/wDYu/aJ0n4kXmv+JfiFqfhm4F9omn6vbWcNjp92pDRXLLBCplliYbo92EVtr7NyqV/Nf/g8u/Z9bwD+3Z4R8eW8Ua2nxC8LRiUqnW60+ZoZCfXMV1af98V/TJX5Hf8AB4f+zqfid/wT48K+OLWGKS8+HviqGKd2XLJaahE9o2D7Ttan8KAP5yviH+1DrfxG/Z98B/Dq8WE6T4Bm1Z7CXdl2Goz29xKCOwEkAwe4c1/QF/wZbeFY7L9kn4waxt+a98U2Nnu/65aXbyf+16/mrj4Zvl/D8xX9SX/BnZ4Gm8M/8EzvFuqTFt2vfEG/eMkdI4LSytgPziNAH6zDpRQOlFABXxl/wXp/bUh/Yf8A+CZvxE1631BdP8UeKrRvCnhtg4WT7deI8fmpnvBD5s54PywHg19jzusUbMxVQvzEngAepPT/AOtX8pf/AAc4f8FXrb/goF+1rB4P8Fat/aHwy+GLzWGmywSN5OsXxbbd3uPusm6NYon/ALiSMPlmFAH5kX9ws91I0YKx7vlUnO1Rwo/Kvq3/AIIifs03H7VH/BS/4P8AhNIWmtZ/ElrqWoYhLqLKwJv5tx6Kp+zpGSf+eygdQD8mbSz7R0yB+df0I/8ABmx+wC2j6X42/aD1q0ZWuI28I+GWfdtcB1l1C5UHj7y28AYDrBKM80AfvKo2qPp2FLQp+UUUAcv8afjV4V/Z1+GGreNPHGuWPhnwroMazahqd6xWC0RnWNSxAOAWdR9SK+bf+H9n7HP/AEcN8O//AAMf/wCJrnf+Djr/AJQnfHz/ALA9p/6cbSv48/BPhC++IXjLSdA0uNZtT1y9h0+0jZwiyTSusaAseBlmAyeBQB/Zd/w/s/Y5/wCjhvh3/wCBj/8AxNegfs2f8FQ/2ff2wviG/hP4Y/Fjwn418SR2cl+2n6bcNJMtujKryEFR8oLoM/7Qr+Z//iE5/bY/6J74b/8ACt07/wCO19+f8G33/BC/9o7/AIJzf8FBr74gfFbwppGi+GLjwjfaQlxba7aXrm4lntXRdkTs2CsT84wMe9AH7vUUV8e/tM/8F8/2Rf2SvEd1ovi741+G5dcs5Ghn0/Q4bjXJoJF4aOQ2ccqxOOQVkZSCMHnigD7Cor4z/Zy/4ODf2Pf2pfFFrofhj42eH7XW7x1jhstetLvQ2ldjtVEku4o4ndjjCo7E5AxnivstHWVFZWDKwyCDkEUALRRXyx+1Z/wWy/ZY/Yq8S3Wh/ET4zeF9N1+xby7nStPSfV762fGdksNnHK8Te0gXqM4FAH1PRXw38E/+DkX9i347+IIdJ0343aLo2oXDbUTxFp17osHXAJuLqFIBn3kBr7c0jWLTxBpVvfWF1b31jeRrNBcW8gkinRhlWVlJDKRyCDg0AcP+0l+1R8O/2Pvh2viz4neLtI8F+G5LuOwXUNSkMcJnkDMkeQD8xCMR/umvBf8Ah/Z+xz/0cN8O/wDwMf8A+Jr5e/4PHv8AlEXZf9j7pX/oi8r+Yr4G/A/xV+0n8WtC8C+B9Hm1/wAWeJrn7JpmnxSRxvdy4LbQ0jKg4Un5mA4oA/sc07/gu7+x5qd5Hbx/tEfDRZJDgGbUvJQd+WcBR+JFfRXwg+Ovgn9oLwouveA/GHhfxrojnaL/AELVINRtifTzIWZc+2c1/H34y/4N5f2z/AfhXUNa1D4B+KzY6bC1xP8AZLqyvZgi8nbDDO8jn2RSfavCv2Nf22fiZ/wT/wDjlp3j74Y+JL7w7r2nyKLiEMxtNUhDAtbXUOQJoWxgq3I6qVYBgAf29/G/4lL8GPgt4v8AGD2c2op4T0S91lrSH/WXQt4HmMa/7TbMD3NfyH/EX/g4/wD2yvH/AMaJvGkXxo17w/J9pM9to+lQww6PaJnKwi1ZGSRFGBmYSMcZZmJJP9WH7AX7Xmhf8FDv2J/APxY0u0jh0/x1pIlu7Bz5q2lyrNBd2pJHzrHPHNHkgbgoOBnFfh78S/2Of+COfxF+Nl14th/aB8TeGtNvrpruXwxo81xDpCsWDGOMPpzzxxH5hsWUYBAQoFAoA/Zr/gkR+2XrH/BQP/gnB8K/i54g0+HS9f8AFenTLqcMKeXC91a3U9nNLGuTtjle3aRVycLIBk4zX0hXnn7JjfDp/wBmbwK3wjh0yH4YyaLbP4YXToHhtfsBQGIorgPgqQcuNxJJOSSaX9pT9rH4a/sd/D5vFXxQ8beHfA+gh/KS51W7WH7TJjPlxJ9+WTHOyNWbAJxgUAehV8Y/8FiP+CzvhX/gjt4X8C6p4o8G+IPGEfjq6vLW3TS7mGFrU26RMxfzOoPmjGPQ1yng/wD4Od/2I/GvjZdDt/jRDZyzP5cN5qHh7VLKxlb3mltlSMf7UhRffpn4J/4PUfHOi/Ez9nP9mfxB4c1bTde0HWNQ1i6sNR0+5S5tbyFoLMrJHIhKupHQgkGgD7B/4Jbf8HL3gP8A4Kl/tWW3wp8O/DXxd4X1G40u61QX2o3tvLCqQBSV2x/Nk7hiv0ur+Uf/AINBv+Uxul/9ijq//oEdf1cUAFFfMf7Wn/BZj9mD9h3xBNo/xK+MnhXRdetW8u40iz87VtRtW7LLbWaSyxE5H+sVeOeleY/B/wD4OVv2KfjRrsOl2Xxt0vRb6d9qDxBpV/o8A6ctcXEKQKOf4pB0PbmgD7qoqnoHiCw8V6Ja6lpd9Z6lpt9Es9td2syzQXEbDKujqSrKRyCCQauUAFFFFABRRRQAUUUUAFFFFABRRRQAUUUUAFFFFABRRRQAUUUUAFFFFABRRRQAUUUUAFFFFABRRWbrPinTPDkka6hqNjYtM2Ixc3KxGQ+g3Hn6CgDSr4b/AODgv9hXwv8Atv8A/BOjxZ/bmqaH4a1j4dxSeKND1vVrj7LaWc8UbCWGaXI2w3ETPE3JAZ0bBZFr7C+JnxS8PfB34d6t4u8Ua1pug+GdBtGvr/U76cR21rAg3NIznsB0Hc4A61/K/wD8F8v+C93iL/gpV8QpfBfgya+8PfBvw/dk2OnkmG41uZDhb68HY55jhPEP3mzLjywD8z9St1tb5o037V4+ddrfiMnB9s1rfDrx/qXwx8Z6R4g0i6uLHVNFvIdQsru3cJPaTwuskcsTfwSI6qysO4GQQSDgM2TSUAf1uf8ABC3/AILzeFv+Clnw5sfCHjG+07QfjTpMGy5tGdYYPE8aAbru0VsfP3kgGWj+8NyEGv0gXpX8Dfg/xnqXgTXrHU9LvLmwvtPuYry2uLeZ4ZraaNg8csciEPG6sAQyMGGOCMmv3K/4JZ/8HeereFLbSvBv7SGl3XibT1UQR+MdKhH9p24BRU+12i4W5HLFpYCsnGPIb71AH9DVfN//AAVw/ZyP7V//AATe+M3gWKyt77UNY8MXcumxT/c+3W6G4tWzg4InijO4DjGRyBXW/srft8fBv9tnwlDrXwu+I3hfxhayIjSQWd4ovbUsoYJNbPiaF8fwSIrdeBXrd3BHdWrrIqyRyKQ69mBGD+nFAH8DesRiLVpiq7VlInVfRWXeo/Iiv61f+DWHSP7N/wCCPvhO4xj+0/EWv3Wfpqc8f/tOvhj9pn/gzO8ReJ/2m7rU/hn8RfBWkfDTUr+W7FnrFjdG+0aJ3Li3VIjsuEj3FEO+EhFUHJBY/tJ+w7+yL4c/YN/ZU8F/Cbwm80+jeDbH7Mt1cALNfTO7Sz3EgXgPLM8khA4yxoA9aX7oqGWRYOSQOp5P1P8AT9K+Zf20/wDgsL+zz+wNZXUXj/4jaKviC3i8xPDmlP8A2hrU+d2ALaLLoCVPzybVGOSK/AH/AIK5/wDBz/8AE39uey1bwP8ADmO++F3wyugsUsNref8AE81cBm3C6u4m2xQsNoMEB+Zch5XUlKAPrr/g43/4OKbHTtF1v4AfAjXIr64vlk07xf4rsZ8xRIQVk06zkU5Yn5lmnXhBmJDvLtF/PfPO0k7yN99ySflC4/AcD6Ci6u3uJWkb77cYVQoX2AHA+grovhL8K9b+M/jnSvDvh/TdQ1bWNauY7KztLODzri7mc4SOJOrOxwAOg5JIUEgA9E/YC/Yu8Xft8ftPeFPht4NtJptU8RXqwvc+R5tvpsAwZ7ubJx5UMeZG7sRGg+aRa/tL/ZY/Zu8L/sh/s9+Evhr4Os1svDvg/TodOtVwN8uxfmmcj70kjbnZu5Ymvjr/AIIJf8EWdI/4JXfAuTWPEVvaXvxh8aW0f9v3kbebHpMC5ZNOtmOcqrHdI4wZZOfupGq/oQKAAdKKKKAPiP8A4OOv+UJ3x8/7A9p/6cbSv5D/ANnzxnY/Dn49+B/EOptImm6D4gsNRu2jTe6xQ3EcjkDudqnjvX9eH/Bx1/yhO+Pn/YHtP/TjaV/H78K/Ac3xT+J/hvwxb3EdrP4j1S20uOeRSyQtPKsQYgckAtnA9KAP6pP+Iur9jP8A6GHx3/4S8/8AjX1R/wAE6P8Agq38If8AgqXofirUfhLf65fWvg2e3ttSOo6Y9kUedZGj2hj83ETZx04r8WP+IIP4m/8ARdPAn/glu/8A4qv0w/4IDf8ABGDxJ/wR08GfEvS/EXjbQ/Gj+Or2wuoJNOs5bcWot0nVgwkJzu80EY9DQB8Mf8Hbn/BZjxR8NvGMf7MPwy1y60HzNOiv/Hmo2MvlXUizrvg01ZFO6NWiKyy4wXSaJc7TIrfjV+wb/wAE1fjN/wAFKvH9/wCHfhB4Pm8Rz6PEk+p3ktxHaWOmI5IQzTysqKWKttQEu21iFIVsd/8A8F4vEd/4p/4LEftD3WpMzXEXjG6s0LAg+TAFhhHPYRRoB2x04r96v+DOfwHovhr/AIJMXWsafHCdW8SeNNSm1WUMGk3xJBDHG3dQsSKwU/8APQn+LJAP52f29/8AgmZ8aP8Agmh480/QPi/4Rk8PSa1HJLpV9DcxXlhqqRlRIYZo2KkrvTcjbXUOpKgMM/rx/wAGi3/BYfxLrvxDX9lr4ia3PrGmT6fNeeAbq9l8y4snt1Mk2mhjy0XkrJLGD/qxC6j5Sqr+6nxu/Zp+HH7TOjWWnfEj4f8Agn4g6fpsxubS18S6Ha6tDayldpkjS4RwrFSRuABwcVyHw6/4Jz/s9/CDxrp/iTwl8CPg14X8RaTIZbHVdI8FabY3tm5UqWimihV0JViMqQcEjvQB+Vv/AAdf/wDBa3xR+y4mm/s7/CfWrrw/4o8R6auqeLNdsJzFeabZSMyw2ULr80ck21ndwQyx+WBxKSPwV/Y8/YZ+LX/BQL4qN4P+Evg3VPGevRxfaroQOkMFlFnHmzzyssUSknALsNx4GTxXvv8AwcY+ItQ8T/8ABav4+XGpbvPh1q3tIwwIxDDYW0UWAe3loh9DnI4NftB/wZafDrQdE/4JseOvE9lHbyeIPEHj65s9TuFUeaI7WytDbwMeu1PtEsgB6faG9aAPwj/bw/4I7ftD/wDBNnRNN1f4tfD+40XQNWmFtbavZ31vqNiZiCwieSB3EchCsQsm0sFJXODj61/4No/+C13if9iL9prw38H/ABnrlzf/AAX+IGoppiW15KXj8L387hYbqAnPlxPKwWVBhMOZOGU7v6Ff+Cyfw90D4m/8Epf2htN8SxWsmmQ+ANY1JWnTetvc2tpJc20wHUtHPFE4xzlRjmv4nba5ksriOaGSSGaFg6OjFWRgcggjkEHvQB/U7/wePf8AKIuy/wCx90r/ANEXlfgt/wAEGvEFh4V/4LAfAPUNUvrPTdPtfEqvPc3Uywwwr5MoyzsQFHuTX7kf8HYOuXvib/ghp4L1LUo2h1HUPE+gXN0jHJSV7G6ZwfoxNfzb/s2/s7+Kv2s/jp4Z+HHgmyh1HxX4uuxY6ZbTXKW8c0pUtgyOQq8KeSRQB/bZ8SP28/gj8IfCd1rnib4ufDfRdKs0LyT3HiK0UcDOFG/c7HsqgsegBNfxU/tr/FTQ/jr+2X8W/G/hi3ez8NeMvGmsa5pMDwiFoLS5vpp4UKDhSI3UbRwMYrm/jl8E/FH7N3xg8SeAvGmkzaH4q8JahLpmp2MpDNBNG2GAZSVZT1V1JVlIYEgg1+pn/Buh/wAG+ngv/gpV4di+MHxC8dafqHgvw3rT2F54K0oSLqFxPF5cix3szBRFDIjBsQ7y6NgSRsGCgH7Ff8GxHwu1n4Vf8EUvg/b65ayWN1rS6jrcELghvst1f3E1u59pIWSQY6rItfx/1/floui2fhvRrTTtPtYLKwsIUtra3gQRxQRIoVEVRwFVQAAOABX8BtAH9mn/AATK+Meh/s8f8EKfg7498TXH2Xw/4N+E9lrWoyj7ywW9gJX2juxVSAO5IHev5Qv+Ci//AAUK8ff8FLP2m9c+JHjvUbiT7ZO66RpAnZ7Pw/ZZ/d2tup4VVULuYAF2y7ZJNfv3+114hv8Awx/wZnaTc6azrcSfDLwnaOVznyZ77TYZhxzgxSOD2xnORmv5yf2V/BWj/Er9p74ceHfEDeXoGv8AijTNN1Jt23bbTXcUcpz2+Rm5oA+jP2UP+CAn7WX7afwgh8eeBPhTeT+Fr6Ez6beapqdnpP8Aay4yrW6XMsbOjfwyYEbdn614X+0RpHxc/Z7ib4G/Ey38TeHI/BGqzainhjVlKrpd1cRxiSaIHICyokR3RnZIArDPBr+6DR9ItfD+k2thY28NnY2MKW9vBCgSOCNAFVFUcBQAAAOgFfgH/wAHwvwy8O2V9+z74yjt7W38Vaims6PcTKFWa9s4PscsYb+Jliknkx2U3Lf3hQB8l/8ABoN/ymN0v/sUdX/9Ajr9RP8Ag6s/4LGeIf2Dvg7oPwg+GerT6L8RvibZy3l/q1rJsutC0gMYt0LfeSa4kEiJIvKLDKQVfYw/Lv8A4NBv+Uxul/8AYo6v/wCgR1R/4O4/Ed/rf/BZzxPa3jM1vo/hvRrOxBBwsJtvOIGe3mzSnjjJPfNAHyH+wb/wTs+MH/BUP413XhT4XaG2varBH9u1fUr66FvZ6ZE74865nf8AvMThVDSOQ21Wwceyf8FDf+De/wDaQ/4Jp/CZfHnjrRPD+teDY5UgvtW8Oaib6HSnkbZGLhXSORFdiFD7Cm5lUsGZQYf+CVn7b/7X37HPgTxYv7NPhnxBqWj+Ir+E63eaZ4E/t7dPDGfLiebyJCu1ZSwTIx5hOPmJPvnx/wD+CoX/AAUz/ad+Cnij4e+MfAPxB1Hwv4w06XS9Ttk+ErwtNBIu1grraBlb0ZSCDgjmgBv/AAbI/wDBZbxR+xd+1h4a+DvizWrzUPg98StRj0mOzuZi8fhzUp3CW91Bu/1cbysqSqCFIk8w5ZOf6qq/ht0f9gj9onw/q9rf2PwT+M1reWMyXFvNH4N1JXhkQhlYHyeCCAR9K/uSoAKKKKACiiigAooooAKKKKACiiigAooooAKKKKACiiigAooooAKKKKACiiigAooooAKKK/P/AP4Lkf8ABcbwr/wSq+F0mi6JJpviD40eIrUyaLo0j7odJibKC/vQpBEQYNsiyrTOpA2qskkYA3/guT/wXH8Lf8EqfhbJouitY+IfjN4htDJoujM++HSImJVdQvQpyIgwOyLKtOylQVVZJI/5Tvj7+1H46/ab+JWoeLPHnibWfGHiDUJHeS+1qcXkp3yM+1A3yRRgudscSrGgwAoAFZvx0+OXib9o/wCKOt+MvGOuah4g8SeIrx7/AFG/vH3S3UzYBdsfKMKFUKoVUVVVVVQAOJY5Y/WgD2fVf2+fi5rv7NFr8Ib3x94ou/h3Y3yahbaFcag89pbyogRNgfLqi7QUiD+Uj5dUWT5x42etR1IOlABUsEBnI27eOWY8BRkc/wCeuQOvFOtYPtMqqNqj+Jm+6o4ySeT+XtjrX9D3/BuR/wAG5/8AwruPQfj18ftBYa6pj1Dwd4O1G3KtpmPmj1G/jYf8fPRooDnyRtZx5uBEAfz9ePfhfr3wx8R3mk69pOpaPqWmsiXdpe2kltcWrMoZRJFIqyRkrggMoJBBGRzXP4xX9rX/AAUI/wCCSPwR/wCCl/hsQfEbwxs8QWkLRad4m0qT7JrWm5RkGyZQRKg3E+VMJIicEocDH4Z/t0/8Gfvxo+DVxear8INV0r4taH5zMlkvlaTrUEbSHaphlk+zzMqFcsksWSDiPnAAPyN8KfEPWfBOtWeqaXqV7Y6jprK1td207w3NtgYAjlQq6cE/cI619SfB3/gu7+1d8ENH+waL8cviKbVCTHFe6hFqgjyegN7FOxUf3QcCvD/jp+x58TP2a9Y+xePvAvizwTdG4e3VPEGkz6ajupOdssqrFIp2kgpIwIBIJ6157D4evrvd5FrNdbTyYV84D8VyKAPux/8Ag5n/AG0LhWWT45a35fYR6FoqMB/vCyryP47f8Fiv2kv2i/MXxR8Z/iXqlrLG8T2i69LYWrq+N26Cz8iNugA3KQBxivm8+GdS/wCgfff+A7/4U1tDuo32yReSfSUrH/6ERQBHJqckkAj+WOPuqLtU/wC8O9V6+gv2Yv8Agl98ef2wbq3j+Hnwt8beJra5jaRL610t4rAAY63k/l22DuGMSnOcgEZr9Zv+Cfv/AAZs69d6hZa5+0J4w0/RbGNlkfw74Xl+030wAUlZb2RBFDltwIhjdgNpWYGgD8d/2O/2HPiV+3N8XtN8GfDjwtqniPWrxlZ47dNsdrF1864lbCW8GD/rZGCkjC72wp/qG/4Ii/8ABBPwh/wS28D2PiXxIdL8XfGi+tTHe6zChex0ZXHzwWG9QwBGFedgrygAYRAsY+vv2Uv2MPhj+xB8NU8I/C3wdo/hHR9wkuBaRbrjUJQoXzrmZsyzykBcvIzMcAZxXqQ+dR9OxoAaDkVIOlA4ooAKKKKAPiP/AIOOv+UJ3x8/7A9p/wCnG0r+Qj4HeO7f4XfGvwf4mvIZri08O63ZanPFDjzJEgnSVlXJA3EKQMkDNf2y/wDBR39jj/h4F+xP4++Dv/CR/wDCI/8ACcWcVp/a/wDZ/wBv+xeXcRT7vI8yLfnytuPMXG7PbB/G/wD4gY/+rov/ADG//wB9KAPYv+I2f9n/AP6JT8Yv+/em/wDyVX0d/wAEuf8Ag46+Fn/BVj9pS4+GPg3wP8QPDurW+i3GuNda0toLYxQyQxsg8qZ23EzLjjGAeelfB/8AxAx/9XRf+Y3/APvpX1h/wRs/4Nov+HSP7W918U/+F1f8LA+1eH7rQv7M/wCEQ/snb50sEnm+d9tn+75ONuznd1GOQD8tv+Duj/gn9rX7PH/BQm4+MVjps7eBfjJDBP8AbI0zBZ6vBAsNxbMQPlaRIkuBuPzmSXbwjBfPP+CDn/BwPqv/AASDh8SeD/EXhe68b/C/xTef2q9lZ3K299pF/wCWkbXEBcbJFkjjjR42K/6tGVlwyv8A1Q/tIfs1eBf2u/g5rHgD4keGtN8WeEdei8u7sLxDtJHKyIykPHIh+ZZEKujAFSCM1+LX7S3/AAZHeGte8TXF98JfjVqfh3TZmd00nxNoy6kYSSSFW6hkiOwcKA0TNgZLMeoB8i/8FYf+Dqv4p/tj+I/D9j8Drjxd8DvCugmWWeaz1fZquuyuFCmdogFjjjAbbGrNkuzMThQvuf8Awa+/Gf8Aay/4KBftuSeKfG3xk+KmvfCH4aWktxrEWo6zPJYatfTRNHa2RBOHILm4YcgCBQ2PMXPe/s7f8GRGi6T4mtbz4q/HC+1rS4WVptL8M6GLGScA5K/appJNoPTiHOCeQa/ab9lv9lP4f/sW/BbSfh78MvDOn+FPCmjr+5tLUEtK5A3TSyMS8sz4G6RyzNgZPAoA/nV/4PC/+CdmtfB39s61/aA0nT5JvBfxUtre01W5ijOzTtYtoFg2SY4UTW8UTqeNzxz8ZGW+af8Agh5/wXe8Uf8ABHbxT4i02Tw1H46+HPjKWK41PRvtv2O5s7qMFFuraXa6hih2ujLiQJGNybc1/W18afgp4T/aL+F+seC/HXh/TPFHhXxBB9n1DTNQhEsFymQRkdmDAMrDDKyggggGvxj/AGr/APgyg8AeOPFd1qnwd+LOs+A7G4cuuia7pn9s29vn+CK4WWKVUHYSCVvVjQB8h/8ABYr/AIOrda/4KC/s66l8Jfhn4FvPh54U8TIkXiHU9Q1FbnUtSgDBjaRrGoSGJio3tudpFymEUsG+Kf8Agjp/wTn8Qf8ABTP9unwf4DsNPupvCtneRan4u1BUPk6bpUThpizdA8oHlRju8i8YDEfqx8E/+DH7y9ft5/iN8fPO0tGzPZeG/Dvl3Ewz0W4nlZUOO5hfk9OOf2Q/YN/4J3/Cf/gmz8G18E/CfwzHoenzOs+oXs0huNQ1mcDHnXM7fNI3XCjCJkhFUcUAfCH/AAeMQrb/APBIbT441WOOPx5pSqqjCqBb3mABX4Sf8G/n/KZf9nz/ALGdf/REtf1Ff8Fj/wDgmL/w9q/ZFh+Ff/Cb/wDCv/J1+11z+1P7G/tXPkRzJ5Xk+fB97zs7t/G3oc8fCP8AwT+/4NFP+GFv2zPh78XP+Gg/+Ep/4QPVBqX9k/8ACC/Yft2EdNnnf2hJ5f3s52N06UAePf8AB5F/wS+yNC/ak8I6d90Q+HvHSQoMf3bG/bAznn7M7E/8+wA+8a+AP+Dcv/gqY3/BM/8Abz09fEF/9m+F/wATDDoPioSNiKxy5+y6gfT7PI7bjz+6lm4Lbcf1nfHv4H+G/wBpf4KeKvh/4wsRqXhnxlpk+k6lb52s8MqFGKt/C4zuVhyrAEcivwxm/wCDGRGmYx/tQMseTtDfDjcwHbJ/tQZ+uBQB+/UMy3EKyRsskcgDKynKsD0INfwC1/c7+wZ+zr4q/ZJ/ZM8G/Dbxh8QG+J+q+DbIaZF4ik0o6bNeWsZIt1kiM8+Xji2R79+XCAkZJJ/GD/iBj/6ui/8AMb//AH0oA+//ANlz9lyP9tb/AINtvAXwqeSGGbxv8HLLTrOaUfu7e7NkjW0rcH5UnWJjjnC8YPNfyQfEb4eeIPgn8Sda8L+JNNvdA8UeF9Ql0/UbKcbJ7G6hco6HH8SspGQccZB71/ch+xX+zh/wx/8AskfDj4Wf2z/wkX/Cv/D9noX9p/ZPsn2/7PEsfm+Tvfy92M7d7Yz1NfJv/BWr/g3X+DH/AAVW12TxddXF98OfigYVhfxPo9tHKupKi7IxfWzFRcbFCqHDxybURfM2qFAB+cX7Gf8Awemah8OfgNpvh/4xfC3UvGnjDRLRbVNf0fVo7Ya1sUKslzFIh8uVsZd0ZgxJIRfu1+ZH/BW3/grH47/4K5/tFweNvFtlaeH9H0S1On+HvD1nM01vo9uW3vmRgplmkbBeQqu7aoCqqqo/T/wr/wAGO+vN4xRdc/aG0hfD8ciF5LHwnI15OnVlCvchI2PQNucDOcHG0/UP7UP/AAaL/Cv4nfswfD34a/DLxxcfDQ+EdQutU1nXr/QRr2peK7iaGGIPOwuLYRiMRHaiDYvmNhVJYsAfl3/waDf8pjdL/wCxR1f/ANAjr6i/4PQ/+Cf2sp4/8EftIaDpstzoM2nR+FPFMsKFhYzxyyPZ3EmBwsqyvDuOAGiiXq4z9df8Egv+DYj/AIdTftj2vxa/4Xf/AMJ59m0i80r+yv8AhDv7L3eeFHmed9um+7t+7s5z1FfqH8RPh3oPxc8Dat4Y8UaPpviDw7rts9lqOm6hbrcWt7C4w0ciMCGUjsaAP5KP+CBX/BdG4/4I9/EHxRp3iLw7feLvhn468ibU7OwlVNQ026hDhLm3EhEb7kco8bFdwWMh12Yb7Y/4KN/8Hmt3428H6bpP7MPhfxD4P1JrkTahr/jCxspZliVT+4htEknjO5jkyM+QEwFy2V9m/bA/4MsPhj8TvGF1rPwd+J2ufDO3u5TK2h6rpv8AbljBkj5IJfNimjQDJxI0xzxkDp5b8Hf+DHy4HiC2m+IHx+hbSo3zcWnh7w2RcTr6JPPNtjPuYX+negDl/wDgjH/wWn/bu/4Kdft3+EfAcfjHR7jwbY3Meq+Mb2LwnYIllpUTgyqZBF8jzcQpjnfID0Ukf0WV4f8AsEf8E6vhP/wTU+DX/CE/Cfw4uj6fcSi51G+uJPtGo6xOBjzbmc8uwGQFACICQqqCRXuFABRRRQAUUUUAFFFFABRRRQAUUUUAFFFFABRRRQAUUUUAFFFFABRRRQAUUUUAFFFfn1/wXN/4Lm+F/wDglX8MX0DQpdP8QfGnxFaNJo2jyHfBpETEqNQvQCCIgwYJGCGmZSBhA7oAL/wXK/4LmeFf+CVXwzk0HQ5NP8QfGrxBaGTRtHkbfBpMLZUahegEERBgQkQIaZlIG1A8ifyf/HT46eKP2kPilrnjLxlrl9r/AIk8RXTXuo6jevunu5WwC74+UAABVRQFRVVEVVAAj+Nfxt8TftEfE7XPGXjLW77xD4k8RXj3+o6hevvmu5mwC7cbQAAFCqFVVUKoCgAcY/3j9e9ADzwajPWiigAqQdKjqQdKAPuL/g3j8Y/DXwl/wVb+FP8Aws3wtp3ibTNT1EaXpcl7IfJ0XVpiosL0xYKTFZgIwr/Kr3Cyg741r+xSIbUx/Ov5CP8Ag3c/4J++KP2z/wDgoh4EvrC1vovC/wAOdYsPFviHUFj2w20NrMtzbwM5BHmXE8UaqnLFBI/Crmv6+V4WgAqM9akooAo6zodj4j09rTULO11C1k4eC4hWWN/qrAivB/iT/wAEpP2Z/i5rU+peJPgL8JtU1K6OZrubwxaC4kI6ZkCBq+hqKAPkuz/4IYfsf2M4kT9nj4Yu3/TTSEkX/vlsj9K9H+Ef/BOX4A/AO9kufBnwV+F3hm7k27rjTvDVpBM4XcVy6xhjjJ7nrXttFAEMEMdnCscUaxxqAAqrgD8KmHSiigAooooAKKKKACiiigAooooAKKKKACiiigAooooAKKKKACiiigAooooAKKKKACiiigAooooAKKKKACiiigAooooAKKKKACiiigAooooAKKKKACiiigAooooAKKKKACiiigAooooAKKKKACiiigAoor8+f+C5v/Bczwz/AMEq/hlJoGgSaf4i+NPiK1Mmj6O58yDR4WJUahehTuEQIYJGCGmdSBhA7oAO/wCC5X/Bczwr/wAEqvhnJoOhyaf4g+NXiC0MmjaPI2+DSYWyo1C9AIIiDAhIgQ0zKQNqB5E/lB+PPx68U/tJ/E7XPGHjLXNQ8QeIvEF015qF/evumu5mABduw4AVUUBURFVVRFCiH42/G3xN+0P8UNd8ZeMdcvvEXiTxFePf6hqF6++a7mbALtxgAABQqhVVVCqAoAHGP94/XvQA+oz1oooAKKKKACvrH/glH/wSl+IH/BUb9oC18K+Fbf7Do1iI7rX9fuYDJZ6BaNnEsg48yZwGENuDulYbjtjV2Cf8EpP+CUvxA/4Ki/H+18K+FbcWGj2Ijutf1+6gL2WgWjE/vXA/1kzgEQ24IaRhuYrGrNX9cn7DP7DHw+/4J7fs/aX8OfhzpX2HS7HMt3eTEPe6xdMB5l3cy4HmTOQMnoAFVQqqqgAd+w1+w18P/wDgnr+z9pfw7+Hek/YdK0/9/dXUuHvdZu2AEt3dSY/eTOQMknAUKqhVUKPZl+7QpytFABRRRQAUUUUAFFFFABRRRQAUUUUAFFFFABRRRQAUUUUAFFFFABRRRQAUUUUAFFFFABRRRQAUUUUAFFFFABRRRQAUUUUAFFFFABRRRQAUUUUAFFFFABRRRQAUUUUAFFFFABRRRQAUUUUAFFFFABRRRQAUUUUAFFFFABRRX5+/8Fyf+C5Phb/glT8MJND0OTTfEHxo8RWpk0XRpX3QaTE2UF/ehSCIgwbZFlWmdSo2qJJIwA/4Lk/8Fx/C3/BKj4YSaHokmn+IPjN4itDLo2jyN5kOkRMSgv70KcrEGBCR5VpnUgFVEkkf8n3x0+Ovij9o/wCJ+teMvGOuah4g8R+JLt7zUdRvX3T3crdWbHyjChVVF2qiKqKoUACP44fHDxP+0b8Udc8ZeMtc1DxB4k8R3j32oX94+6a6mbje2MKAAFVVUKqKqqqqoAHFt94/WgB+c1GetFFABRRRQAV9Zf8ABKH/AIJR/ED/AIKkftA2vhTwrbf2fo9gI7rxB4guoDJZeHrRuksgyPMmfkQ24OZWG5tsSuwb/wAEo/8AglH8QP8AgqN8f7bwr4Vtzp+j2Pl3XiDX7m3Mll4ftG6SyDjzJnAYQ24IaVhuJSNWev65/wBh39h74f8A/BPX9nzSfhz8OdJXT9J0/wDf3d1MQ95rF2wAlvLqXAMk0hXkn5QoVVCqqqABn7DX7C/w+/4J7/AHS/hz8OtJ+w6XYkzXV5Nh73V7pwPMu7mTH7yZyBk9AAqgKqqo9oX7ooByKKACiiigAooooAKKKKACiiigAooooAKKKKACiiigAooooAKKKKACiiigAooooAKKKKACiiigAooooAKKKKACiiigAooooAKKKKACiiigAooooAKKKKACiiigAooooAKKKKACiiigAooooAKKKKACiiigAooooAKKKKACiiigDyr9tf8Aah0n9iv9lLx/8VNcRp9P8D6Ncan9nDhWvJFUiKBSSAGklMaAnu9fxRftUftFeKv2q/j94q8eeNNU/tbxJ4m1GW+1G5Dlo5JThcR5J2xIoWOJf4I0Re2T/UV/wdda5caP/wAEh9ajtz+71DxXodvP/ufbFk/9CjWv5K2OWNAEh6//AFqjPWiigAooooAK+sP+CUf/AASl8f8A/BUf4/W3hXwrbtY6PYiO61/X7m3L2Xh+0Y8SyDjzJnG4Q24O6RhubbGrMT/glH/wSl8f/wDBUf4/W3hXwrbtY6PYiO61/X7m3L2Xh+0Y8SyDjzJnG4Q24O6RhubbGrMf65f2Gf2Gvh//AME9v2ftL+HPw70v7Dpdjma7u5SHvdYu3A827uZcDzJnIGT0AAVQqqqgAX9hv9hn4f8A/BPP9n7S/h38O9J+w6Vp48+6upcPe6vdsP3t3cy4/eTOepPAUKqhVUKPZh0oXpRQAUUUUAFFFFABRRRQAUUUUAFFFFABRRRQAUUUUAFFFFABRRRQAUUUUAFFFFABRRRQAUUUUAFFFFABRRRQAUUUUAFFFFABRRRQAUUUUAFFFFABRRRQAUUUUAFFFFABRRRQAUUUUAFFFFABRRRQAUUUUAFFFFABRRRQAUUUUAFFFFAHyf8A8FtP2RtU/bZ/4JmfFTwNoMNxdeJvsCa1oUEGzzJ76ykS6hhUv8uZGi8vnHEnUda/i91W3WHUJhHuEZJZAw2ttPIyPWv77nG/cPXj1zX4J/8ABwh/wbW67478ea58bP2fdCOrHVnl1HxH4QsIl+2JdMd0lzYx8CVZWLPJBneH3NGHLshAP586K6DxB8N9a8L+IrvR77Tb621WyleC5tJIHjubd0YKwkiYB4zu4w4Bz2BqjN4Y1CBN0tncQr3aSMoo+pbAH4mgDNr6y/4JQ/8ABKP4gf8ABUj9oG18KeFbb+z9HsBHdeIPEF1AZLLw9aN0lkGR5kz8iG3BzKw3NtiV2HZf8Ep/+CGfxg/4KaeN7KfR9HuPDfgGKVft3i/U7Rl02BN5Vvs+SPtsw2nbHFmPO0ySKMq39WX7DX7DXw9/4J6/s/aV8O/hzpP2HR9PzNdXU+HvtZu2AEl3dSYUyTPgZJG1VCqoVVCgAP2G/wBhr4f/APBPf4AaX8OfhzpX2DSbHMt3dzEPeavdMAJLu5lAzJM5UZPQAKoCqqqPZh0oHSigAooooAKKKKACiiigAooooAKKKKACiiigAooooAKKKKACiiigAooooAKKKKACiiigAooooAKKKKACiiigAooooAKKKKACiiigAooooAKKKKACiiigAooooAKKKKACiiigAooooAKKKKACiiigAooooAKKKKACiiigAooooAKKKKACiiigAooooA8n/aD/AGGfgz+1NLHN8SPhb4D8cXFvzHPrGi291NH2+WR1Lrx6GvP/AIf/APBG79lX4X67b6nof7P/AMK7TUbVxLBcyaBDcSQMOjIZA20j1XFFFAH0hp1jBp1lHBbwxW9vCAqRxqFVAOAAB6VYFFFABRRRQAUUUUAFFFFABRRRQAUUUUAFFFFABRRRQAUUUUAFFFFABRRRQAUUUUAFFFFABRRRQAUUUUAFFFFABRRRQAUUUUAFFFFABRRRQAUUUUAFFFFABRRRQAUUUUAFFFFABRRRQAUUUUAFFFFABRRRQAUUUUAFFFFABRRRQAUUUUAFFFFABRRRQB//2Q==;" parent="uEIHZIaeMJCAUGK6UfYd-2" vertex="1">
          <mxGeometry x="150" y="123" width="220.76" height="117" as="geometry" />
        </mxCell>
        <mxCell id="iVO06veVu8eaDtkg2tSH-25" value="Photo&amp;nbsp;&lt;div&gt;chauffeur&lt;/div&gt;" style="verticalLabelPosition=middle;shadow=0;dashed=0;align=center;html=1;verticalAlign=top;strokeWidth=1;shape=mxgraph.mockup.graphics.simpleIcon;strokeColor=#999999;fontFamily=poppins;labelPosition=center;" parent="uEIHZIaeMJCAUGK6UfYd-2" vertex="1">
          <mxGeometry x="225.38" y="550" width="214.62" height="120" as="geometry" />
        </mxCell>
        <mxCell id="iVO06veVu8eaDtkg2tSH-26" value="Photo&amp;nbsp;&lt;div&gt;chauffeur&lt;/div&gt;" style="verticalLabelPosition=middle;shadow=0;dashed=0;align=center;html=1;verticalAlign=top;strokeWidth=1;shape=mxgraph.mockup.graphics.simpleIcon;strokeColor=#999999;fontFamily=poppins;labelPosition=center;" parent="uEIHZIaeMJCAUGK6UfYd-2" vertex="1">
          <mxGeometry x="225.38" y="710" width="214.62" height="120" as="geometry" />
        </mxCell>
        <mxCell id="iVO06veVu8eaDtkg2tSH-27" value="&lt;font style=&quot;font-size: 16px;&quot;&gt;pseudo chauffeur + Note&lt;/font&gt;&lt;div style=&quot;font-size: 16px;&quot;&gt;&lt;font style=&quot;font-size: 16px;&quot;&gt;Date - heure départ&lt;/font&gt;&lt;/div&gt;&lt;div style=&quot;font-size: 16px;&quot;&gt;&lt;font style=&quot;font-size: 16px;&quot;&gt;Date- heure d&#39;arrivée&lt;/font&gt;&lt;/div&gt;&lt;div style=&quot;font-size: 16px;&quot;&gt;&lt;font style=&quot;font-size: 16px;&quot;&gt;nombre de place disponible&lt;/font&gt;&lt;/div&gt;&lt;div style=&quot;font-size: 16px;&quot;&gt;&lt;font style=&quot;font-size: 16px;&quot;&gt;Voyage écologique : oui ou non&lt;/font&gt;&lt;/div&gt;&lt;div style=&quot;font-size: 16px;&quot;&gt;&lt;br style=&quot;font-size: 16px;&quot;&gt;&lt;/div&gt;" style="rounded=0;whiteSpace=wrap;html=1;align=left;fontFamily=poppins;verticalAlign=top;fontSize=16;" parent="uEIHZIaeMJCAUGK6UfYd-2" vertex="1">
          <mxGeometry x="500" y="547.5" width="370" height="125" as="geometry" />
        </mxCell>
        <mxCell id="iVO06veVu8eaDtkg2tSH-28" value="&lt;font style=&quot;font-size: 16px;&quot;&gt;pseudo chauffeur + Note&lt;/font&gt;&lt;div style=&quot;font-size: 16px;&quot;&gt;&lt;font style=&quot;font-size: 16px;&quot;&gt;Date - heure départ&lt;/font&gt;&lt;/div&gt;&lt;div style=&quot;font-size: 16px;&quot;&gt;&lt;font style=&quot;font-size: 16px;&quot;&gt;Date- heure d&#39;arrivée&lt;/font&gt;&lt;/div&gt;&lt;div style=&quot;font-size: 16px;&quot;&gt;&lt;font style=&quot;font-size: 16px;&quot;&gt;nombre de place disponible&lt;/font&gt;&lt;/div&gt;&lt;div style=&quot;font-size: 16px;&quot;&gt;&lt;font style=&quot;font-size: 16px;&quot;&gt;Voyage écologique : oui ou non&lt;/font&gt;&lt;/div&gt;&lt;div style=&quot;font-size: 16px;&quot;&gt;&lt;br style=&quot;font-size: 16px;&quot;&gt;&lt;/div&gt;" style="rounded=0;whiteSpace=wrap;html=1;align=left;fontFamily=poppins;verticalAlign=top;fontSize=16;" parent="uEIHZIaeMJCAUGK6UfYd-2" vertex="1">
          <mxGeometry x="495" y="710" width="375" height="120" as="geometry" />
        </mxCell>
        <mxCell id="iVO06veVu8eaDtkg2tSH-29" value="Prix" style="rounded=0;whiteSpace=wrap;html=1;verticalAlign=middle;fontSize=35;" parent="uEIHZIaeMJCAUGK6UfYd-2" vertex="1">
          <mxGeometry x="970" y="550" width="180" height="80" as="geometry" />
        </mxCell>
        <mxCell id="iVO06veVu8eaDtkg2tSH-30" value="&lt;font style=&quot;font-size: 35px;&quot;&gt;Prix&lt;/font&gt;" style="rounded=0;whiteSpace=wrap;html=1;verticalAlign=middle;fontSize=20;" parent="uEIHZIaeMJCAUGK6UfYd-2" vertex="1">
          <mxGeometry x="970" y="710" width="180" height="80" as="geometry" />
        </mxCell>
        <mxCell id="iVO06veVu8eaDtkg2tSH-31" value="&lt;font style=&quot;font-size: 20px;&quot; face=&quot;montserrat&quot;&gt;Détails&lt;/font&gt;" style="shape=rectangle;strokeColor=none;fillColor=none;linkText=;fontSize=20;fontColor=#0000ff;fontStyle=4;html=1;align=center;" parent="uEIHZIaeMJCAUGK6UfYd-2" vertex="1">
          <mxGeometry x="925" y="640" width="270" height="30" as="geometry" />
        </mxCell>
        <mxCell id="iVO06veVu8eaDtkg2tSH-32" value="&lt;font style=&quot;font-size: 20px;&quot; face=&quot;montserrat&quot;&gt;Détails&lt;/font&gt;" style="shape=rectangle;strokeColor=none;fillColor=none;linkText=;fontSize=20;fontColor=#0000ff;fontStyle=4;html=1;align=center;" parent="uEIHZIaeMJCAUGK6UfYd-2" vertex="1">
          <mxGeometry x="920" y="800" width="270" height="30" as="geometry" />
        </mxCell>
        <mxCell id="u_t3M-FI7uA13Vi2_Ew4-1" value="&lt;font style=&quot;font-size: 35px;&quot;&gt;Connexion&lt;/font&gt;" style="strokeWidth=1;shadow=0;dashed=0;align=center;html=1;shape=mxgraph.mockup.buttons.button;strokeColor=#666666;fontColor=#ffffff;mainText=;buttonStyle=round;fontSize=12;fontStyle=0;fillColor=#008cff;whiteSpace=wrap;fontFamily=montserrat;" vertex="1" parent="uEIHZIaeMJCAUGK6UfYd-2">
          <mxGeometry x="1090" y="128.5" width="220" height="85" as="geometry" />
        </mxCell>
        <mxCell id="uEIHZIaeMJCAUGK6UfYd-5" value="Vue covoiturage version bureau&lt;div&gt;&lt;div&gt;&lt;br&gt;&lt;/div&gt;&lt;/div&gt;" style="text;html=1;align=center;verticalAlign=middle;whiteSpace=wrap;rounded=0;" parent="1" vertex="1">
          <mxGeometry x="50" y="10" width="570" height="30" as="geometry" />
        </mxCell>
      </root>
    </mxGraphModel>
  </diagram>
</mxfile>
